<svg width="88" height="30" viewBox="0 0 88 30" fill="none" xmlns="http://www.w3.org/2000/svg">
<path d="M0 0H47V27H0V0Z" fill="#00AAA1"/>
<path d="M13.8 24L8.508 8.205H8.4C8.418 8.565 8.445 9.078 8.481 9.744C8.517 10.392 8.544 11.103 8.562 11.877C8.598 12.633 8.616 13.344 8.616 14.01V24H5.511V4.722H10.317L15.393 19.869H15.501L20.793 4.722H25.599V24H22.305V13.848C22.305 13.236 22.314 12.57 22.332 11.85C22.368 11.112 22.395 10.419 22.413 9.771C22.449 9.105 22.476 8.592 22.494 8.232H22.386L16.878 24H13.8ZM36.7422 13.227L41.1432 4.722H44.8692L38.4702 16.494V24H35.0142V16.629L28.6152 4.722H32.3682L36.7422 13.227Z" fill="#181A2A"/>
<path d="M52.236 12.862C53.29 12.862 54.174 12.964 54.888 13.168C55.602 13.3607 56.1347 13.678 56.486 14.12C56.8487 14.562 57.03 15.157 57.03 15.905C57.03 16.3697 56.9507 16.789 56.792 17.163C56.6333 17.537 56.401 17.843 56.095 18.081C55.8003 18.319 55.432 18.4777 54.99 18.557V18.642C55.4433 18.7213 55.8457 18.8687 56.197 19.084C56.5597 19.288 56.843 19.5883 57.047 19.985C57.2623 20.3703 57.37 20.8803 57.37 21.515C57.37 22.2517 57.1943 22.8807 56.843 23.402C56.4917 23.9233 55.9873 24.32 55.33 24.592C54.684 24.864 53.9133 25 53.018 25H48.581V12.862H52.236ZM52.525 17.809C53.3863 17.809 53.9757 17.673 54.293 17.401C54.6217 17.129 54.786 16.7267 54.786 16.194C54.786 15.65 54.5933 15.259 54.208 15.021C53.8227 14.783 53.205 14.664 52.355 14.664H50.757V17.809H52.525ZM50.757 19.56V23.181H52.729C53.613 23.181 54.225 23.011 54.565 22.671C54.9163 22.331 55.092 21.8777 55.092 21.311C55.092 20.9483 55.0183 20.6367 54.871 20.376C54.7237 20.1153 54.4687 19.917 54.106 19.781C53.7433 19.6337 53.2503 19.56 52.627 19.56H50.757ZM61.8081 25H59.6661V12.08H61.8081V25ZM72.7749 20.376C72.7749 21.1467 72.6729 21.8267 72.4689 22.416C72.2649 23.0053 71.9703 23.5097 71.5849 23.929C71.2109 24.337 70.7463 24.6487 70.1909 24.864C69.6469 25.068 69.0406 25.17 68.3719 25.17C67.7373 25.17 67.1536 25.068 66.6209 24.864C66.0883 24.6487 65.6236 24.337 65.2269 23.929C64.8416 23.5097 64.5413 23.0053 64.3259 22.416C64.1106 21.8267 64.0029 21.1467 64.0029 20.376C64.0029 19.356 64.1786 18.4947 64.5299 17.792C64.8813 17.078 65.3856 16.5397 66.0429 16.177C66.7116 15.803 67.4993 15.616 68.4059 15.616C69.2673 15.616 70.0209 15.803 70.6669 16.177C71.3243 16.5397 71.8399 17.078 72.2139 17.792C72.5879 18.4947 72.7749 19.356 72.7749 20.376ZM66.1959 20.376C66.1959 21.022 66.2696 21.5773 66.4169 22.042C66.5756 22.4953 66.8136 22.841 67.1309 23.079C67.4596 23.317 67.8789 23.436 68.3889 23.436C68.9103 23.436 69.3296 23.317 69.6469 23.079C69.9756 22.841 70.2136 22.4953 70.3609 22.042C70.5083 21.5773 70.5819 21.022 70.5819 20.376C70.5819 19.7187 70.5026 19.169 70.3439 18.727C70.1966 18.2737 69.9586 17.9337 69.6299 17.707C69.3126 17.469 68.8989 17.35 68.3889 17.35C67.6183 17.35 67.0573 17.6107 66.7059 18.132C66.3659 18.6533 66.1959 19.4013 66.1959 20.376ZM78.0833 15.616C78.6613 15.616 79.1826 15.7293 79.6473 15.956C80.112 16.1827 80.503 16.5227 80.8203 16.976H80.9053L81.1093 15.786H82.8943V25.068C82.8943 25.9407 82.73 26.6717 82.4013 27.261C82.0726 27.8617 81.5796 28.315 80.9223 28.621C80.265 28.927 79.4433 29.08 78.4573 29.08C77.8 29.08 77.1936 29.0347 76.6383 28.944C76.083 28.8647 75.556 28.723 75.0573 28.519V26.751C75.4086 26.8983 75.7713 27.023 76.1453 27.125C76.5306 27.2383 76.9273 27.3233 77.3353 27.38C77.7433 27.4367 78.1626 27.465 78.5933 27.465C79.296 27.465 79.8286 27.2667 80.1913 26.87C80.5653 26.4733 80.7523 25.9067 80.7523 25.17V24.932C80.7523 24.762 80.758 24.5637 80.7693 24.337C80.792 24.1103 80.809 23.929 80.8203 23.793H80.7523C80.435 24.269 80.0496 24.6203 79.5963 24.847C79.143 25.0623 78.6216 25.17 78.0323 25.17C76.9103 25.17 76.032 24.7507 75.3973 23.912C74.7626 23.0733 74.4453 21.906 74.4453 20.41C74.4453 19.4013 74.587 18.54 74.8703 17.826C75.165 17.112 75.5843 16.568 76.1283 16.194C76.6723 15.8087 77.324 15.616 78.0833 15.616ZM78.6443 17.367C78.2136 17.367 77.8453 17.486 77.5393 17.724C77.2446 17.9507 77.018 18.2907 76.8593 18.744C76.712 19.1973 76.6383 19.764 76.6383 20.444C76.6383 21.4413 76.8083 22.195 77.1483 22.705C77.4883 23.215 77.9983 23.47 78.6783 23.47C79.0636 23.47 79.3923 23.4247 79.6643 23.334C79.9363 23.232 80.1573 23.0733 80.3273 22.858C80.5086 22.6313 80.6446 22.348 80.7353 22.008C80.826 21.6567 80.8713 21.2373 80.8713 20.75V20.427C80.8713 19.6903 80.792 19.101 80.6333 18.659C80.4746 18.2057 80.231 17.877 79.9023 17.673C79.585 17.469 79.1656 17.367 78.6443 17.367Z" fill="white"/>
<mask id="mask0_10_1248" style="mask-type:alpha" maskUnits="userSpaceOnUse" x="84" y="21" width="4" height="4">
<circle cx="86" cy="23" r="2" fill="white"/>
</mask>
<g mask="url(#mask0_10_1248)">
<rect x="84" y="21" width="2" height="4" fill="#00AAA1"/>
</g>
<mask id="mask1_10_1248" style="mask-type:alpha" maskUnits="userSpaceOnUse" x="84" y="21" width="4" height="4">
<circle cx="86" cy="23" r="2" transform="rotate(-180 86 23)" fill="#222222"/>
</mask>
<g mask="url(#mask1_10_1248)">
<rect x="88" y="25" width="2" height="4" transform="rotate(-180 88 25)" fill="#00AAA1"/>
</g>
</svg>
