<svg width="11" height="13" viewBox="0 0 11 13" fill="none" xmlns="http://www.w3.org/2000/svg">
<path d="M8.22677 2.8033C10.0192 4.45801 10.2473 7.40168 8.7351 9.36302C7.22293 11.3244 4.53281 11.574 2.74042 9.91926C2.60223 9.79169 2.4709 9.65522 2.35391 9.50916C3.87087 9.26517 5.28492 8.42372 6.29647 7.11172C7.30802 5.79971 7.8279 4.13278 7.79226 2.45546C7.94353 2.55705 8.08858 2.67573 8.22677 2.8033ZM8.91257 1.9138C8.17285 1.23091 7.30639 0.811663 6.41746 0.638129C7.0395 2.52944 6.75231 4.71571 5.48359 6.36128C4.21487 8.00685 2.2938 8.68475 0.485338 8.33226C0.791341 9.26187 1.3149 10.1259 2.05462 10.8088C4.29816 12.88 7.65519 12.5685 9.54798 10.1135C11.4408 7.65844 11.1561 3.985 8.91257 1.9138Z" fill="white"/>
</svg>
