<svg xmlns="http://www.w3.org/2000/svg" width="384pt" height="384pt" viewBox="0 0 384 384" version="1.1" class="iconadda">
<g id="animate_0" transform="rotate(0,192,192) translate(0,0) scale(1.0,1.0)">
<g id="animate_1" style="transform-origin: 192.426px 192px;"><path style="stroke: none; fill-rule: nonzero; fill-opacity: 1;" d="M 268.148438 223.21875 C 278.535156 202.449219 284.960938 164.464844 287.148438 142.988281 L 287.148438 142.992188 C 275.125 140.253906 264.46875 133.316406 257.09375 123.429688 L 231.878906 123.429688 L 231.882812 123.429688 C 230.46875 127.425781 227.855469 130.886719 224.398438 133.34375 C 220.941406 135.796875 216.8125 137.125 212.570312 137.144531 L 171.425781 137.144531 L 171.429688 137.144531 C 167.1875 137.125 163.058594 135.796875 159.601562 133.34375 C 156.144531 130.886719 153.53125 127.425781 152.117188 123.429688 L 126.902344 123.429688 L 126.90625 123.429688 C 119.527344 133.308594 108.875 140.238281 96.851562 142.972656 C 99.039062 164.46875 105.464844 202.453125 115.851562 223.203125 C 127.925781 247.386719 172.492188 260.570312 192 260.570312 C 211.507812 260.570312 256.074219 247.382812 268.148438 223.21875 Z M 185.144531 178.285156 L 198.859375 178.285156 L 198.855469 178.285156 C 202.644531 178.285156 205.714844 181.355469 205.714844 185.144531 C 205.714844 188.929688 202.644531 192 198.855469 192 L 185.140625 192 L 185.144531 192 C 181.355469 192 178.285156 188.929688 178.285156 185.144531 C 178.285156 181.355469 181.355469 178.285156 185.144531 178.285156 Z M 157.714844 178.285156 L 130.285156 178.285156 C 127.503906 178.28125 125 176.597656 123.945312 174.023438 C 122.894531 171.445312 123.5 168.492188 125.484375 166.539062 C 124.144531 163.789062 123.441406 160.773438 123.429688 157.714844 C 123.429688 150.363281 127.347656 143.574219 133.714844 139.898438 C 140.078125 136.222656 147.921875 136.222656 154.285156 139.898438 C 160.652344 143.574219 164.570312 150.363281 164.570312 157.714844 C 164.558594 160.773438 163.855469 163.789062 162.515625 166.539062 C 164.5 168.492188 165.105469 171.445312 164.054688 174.023438 C 163 176.597656 160.496094 178.28125 157.714844 178.285156 Z M 219.429688 212.570312 C 219.429688 222.371094 214.199219 231.425781 205.714844 236.324219 C 197.226562 241.226562 186.773438 241.226562 178.285156 236.324219 C 169.800781 231.425781 164.570312 222.371094 164.570312 212.570312 L 164.570312 205.714844 C 164.570312 201.925781 167.640625 198.855469 171.429688 198.855469 L 212.574219 198.855469 L 212.570312 198.855469 C 214.390625 198.855469 216.132812 199.578125 217.421875 200.867188 C 218.707031 202.152344 219.429688 203.894531 219.429688 205.714844 Z M 260.574219 171.425781 L 260.570312 171.429688 C 260.570312 173.246094 259.847656 174.992188 258.5625 176.277344 C 257.277344 177.5625 255.53125 178.285156 253.714844 178.285156 L 226.285156 178.285156 C 223.503906 178.28125 221 176.597656 219.945312 174.023438 C 218.894531 171.445312 219.5 168.492188 221.484375 166.539062 C 220.144531 163.789062 219.441406 160.773438 219.429688 157.714844 C 219.429688 150.363281 223.347656 143.574219 229.714844 139.898438 C 236.078125 136.222656 243.921875 136.222656 250.285156 139.898438 C 256.652344 143.574219 260.570312 150.363281 260.570312 157.714844 C 260.558594 160.773438 259.855469 163.789062 258.515625 166.539062 C 259.832031 167.820312 260.574219 169.589844 260.574219 171.429688 Z M 288 123.429688 L 276.464844 123.429688 C 279.960938 125.960938 283.855469 127.867188 288 129.078125 Z M 288 123.429688 " id="animate_2" data-original="#000000" fill="#439985" class=""></path>
</g><g id="animate_3" style="transform-origin: 192px 219.428px;"><path style="stroke: none; fill-rule: nonzero; fill-opacity: 1;" d="M 192 226.285156 C 195.636719 226.285156 199.125 224.839844 201.699219 222.269531 C 204.269531 219.695312 205.714844 216.207031 205.714844 212.570312 L 178.285156 212.570312 C 178.285156 220.144531 184.425781 226.285156 192 226.285156 Z M 192 226.285156 " id="animate_4" data-original="#000000" fill="#439985" class=""></path>
</g><g id="animate_5" style="transform-origin: 240px 157.713px;"><path style="stroke: none; fill-rule: nonzero; fill-opacity: 1;" d="M 246.855469 157.714844 C 246.855469 161.5 243.785156 164.570312 240 164.570312 C 236.214844 164.570312 233.144531 161.5 233.144531 157.714844 C 233.144531 153.925781 236.214844 150.855469 240 150.855469 C 243.785156 150.855469 246.855469 153.925781 246.855469 157.714844 " id="animate_6" data-original="#000000" fill="#439985" class=""></path>
</g><g id="animate_7" style="transform-origin: 144px 157.713px;"><path style="stroke: none; fill-rule: nonzero; fill-opacity: 1;" d="M 150.855469 157.714844 C 150.855469 161.5 147.785156 164.570312 144 164.570312 C 140.214844 164.570312 137.144531 161.5 137.144531 157.714844 C 137.144531 153.925781 140.214844 150.855469 144 150.855469 C 147.785156 150.855469 150.855469 153.925781 150.855469 157.714844 " id="animate_8" data-original="#000000" fill="#439985" class=""></path>
</g><g id="animate_9" style="transform-origin: 188.6px 147.923px;"><path style="stroke: none; fill-rule: nonzero; fill-opacity: 1;" d="M 233.144531 109.714844 L 294.859375 109.714844 L 294.855469 109.714844 C 296.675781 109.714844 298.417969 108.992188 299.707031 107.707031 C 300.992188 106.417969 301.714844 104.675781 301.714844 102.855469 L 301.714844 96 C 301.714844 94.179688 300.992188 92.4375 299.707031 91.152344 C 298.417969 89.867188 296.675781 89.144531 294.855469 89.144531 L 233.140625 89.144531 Z M 171.429688 61.714844 L 212.574219 61.714844 L 212.570312 61.714844 C 216.8125 61.730469 220.941406 63.058594 224.398438 65.515625 C 227.855469 67.96875 230.46875 71.429688 231.882812 75.429688 L 286.898438 75.429688 L 286.894531 75.429688 C 286.085938 57.371094 281.3125 39.714844 272.914062 23.710938 C 267.839844 27.46875 262.4375 30.773438 256.777344 33.597656 L 256.78125 33.601562 C 254.71875 34.636719 252.273438 34.5625 250.273438 33.410156 C 248.277344 32.257812 246.992188 30.175781 246.855469 27.875 C 244.734375 19.71875 239.625 12.660156 232.546875 8.089844 C 227.109375 10.96875 222.027344 14.480469 217.421875 18.5625 L 217.417969 18.5625 C 215.859375 20.121094 213.648438 20.835938 211.46875 20.484375 C 209.292969 20.128906 207.417969 18.753906 206.433594 16.78125 C 202.9375 10.464844 198.003906 5.0625 192.035156 1.007812 C 186.054688 5.066406 181.113281 10.464844 177.601562 16.78125 C 176.613281 18.746094 174.742188 20.121094 172.570312 20.476562 C 170.398438 20.828125 168.1875 20.117188 166.628906 18.5625 C 162.003906 14.480469 156.910156 10.964844 151.453125 8.089844 C 138.300781 18.464844 137.144531 27.601562 137.144531 28.011719 C 136.90625 30.269531 135.589844 32.261719 133.605469 33.375 C 131.644531 34.476562 129.269531 34.546875 127.246094 33.566406 C 121.582031 30.753906 116.171875 27.464844 111.082031 23.710938 L 111.085938 23.710938 C 102.6875 39.714844 97.914062 57.371094 97.105469 75.429688 L 152.121094 75.429688 L 152.117188 75.429688 C 153.53125 71.429688 156.144531 67.96875 159.601562 65.515625 C 163.058594 63.058594 167.1875 61.730469 171.429688 61.714844 Z M 89.210938 182.949219 C 86.589844 170.074219 84.59375 157.082031 83.226562 144.015625 C 82.101562 143.820312 80.945312 143.953125 79.890625 144.398438 C 78.09375 145.761719 76.875 147.746094 76.460938 149.964844 L 76.464844 149.964844 C 74.101562 159.15625 76.0625 168.921875 81.785156 176.488281 C 83.78125 179.136719 86.3125 181.335938 89.210938 182.949219 Z M 150.855469 89.144531 L 89.144531 89.144531 C 85.355469 89.144531 82.285156 92.214844 82.285156 96 L 82.285156 102.855469 C 82.285156 106.644531 85.355469 109.714844 89.144531 109.714844 L 150.859375 109.714844 Z M 167.21875 270.691406 C 167.238281 277.238281 166.347656 283.753906 164.570312 290.054688 C 182.296875 296.433594 201.703125 296.433594 219.425781 290.054688 L 219.429688 290.058594 C 217.65625 283.75 216.773438 277.222656 216.800781 270.671875 C 208.703125 272.84375 200.378906 274.058594 192 274.285156 C 183.628906 274.0625 175.308594 272.855469 167.21875 270.691406 Z M 96 129.078125 C 100.136719 127.867188 104.039062 125.957031 107.535156 123.429688 L 96 123.429688 Z M 96 129.078125 " id="animate_10" data-original="#000000" fill="#439985" class=""></path>
</g><g id="animate_11" style="transform-origin: 192.002px 99.4277px;"><path style="stroke: none; fill-rule: nonzero; fill-opacity: 1;" d="M 171.429688 75.429688 L 212.574219 75.429688 C 216.359375 75.429688 219.429688 79.214844 219.429688 82.285156 L 219.429688 116.570312 C 219.429688 120.355469 216.359375 123.425781 212.574219 123.425781 L 171.429688 123.425781 C 167.644531 123.425781 164.574219 119.640625 164.574219 116.570312 L 164.574219 82.285156 C 164.574219 78.5 167.644531 75.429688 171.429688 75.429688 Z M 171.429688 75.429688 " id="animate_12" data-original="#000000" fill="#439985" class=""></path>
</g><g id="animate_13" style="transform-origin: 260.537px 263.973px;"><path style="stroke: none; fill-rule: nonzero; fill-opacity: 1;" d="M 294.796875 182.921875 C 297.683594 181.3125 300.203125 179.121094 302.199219 176.488281 C 307.921875 168.925781 309.882812 159.167969 307.527344 149.980469 C 307.125 147.757812 305.898438 145.765625 304.101562 144.398438 C 303.046875 143.964844 301.890625 143.839844 300.769531 144.035156 C 299.40625 157.085938 297.414062 170.0625 294.796875 182.921875 Z M 212.570312 363.429688 L 274.285156 363.429688 L 274.285156 384 L 212.570312 384 Z M 212.570312 363.429688 " id="animate_14" data-original="#000000" fill="#439985" class=""></path>
</g><g id="animate_15" style="transform-origin: 222.513px 343.227px;"><path style="stroke: none; fill-rule: nonzero; fill-opacity: 1;" d="M 263.191406 317.882812 C 256.972656 317.109375 251.09375 316.375 245.691406 315.289062 L 245.691406 315.292969 C 237.546875 313.796875 230.300781 309.195312 225.492188 302.453125 C 221.269531 303.988281 216.953125 305.242188 212.574219 306.222656 L 212.570312 349.714844 L 274.285156 349.714844 C 277.921875 349.714844 281.410156 351.160156 283.984375 353.730469 C 286.554688 356.304688 288 359.792969 288 363.429688 L 288 384 L 328.410156 384 C 330.378906 383.992188 332.253906 383.144531 333.5625 381.671875 C 334.871094 380.199219 335.492188 378.238281 335.265625 376.277344 C 329.675781 326.1875 294.511719 321.789062 263.191406 317.882812 Z M 109.714844 363.429688 L 171.429688 363.429688 L 171.429688 384 L 109.714844 384 Z M 109.714844 363.429688 " id="animate_16" data-original="#000000" fill="#439985" class=""></path>
</g><g id="animate_17" style="transform-origin: 123.784px 343.227px;"><path style="stroke: none; fill-rule: nonzero; fill-opacity: 1;" d="M 138.308594 315.292969 C 132.90625 316.375 127.027344 317.109375 120.808594 317.886719 C 89.484375 321.796875 54.292969 326.191406 48.753906 376.28125 L 48.753906 376.277344 C 48.53125 378.238281 49.148438 380.199219 50.457031 381.671875 C 51.765625 383.144531 53.640625 383.992188 55.613281 384 L 96 384 L 96 363.429688 C 96 355.855469 102.140625 349.714844 109.714844 349.714844 L 171.429688 349.714844 L 171.429688 306.226562 C 167.046875 305.25 162.730469 303.988281 158.507812 302.453125 C 153.699219 309.195312 146.453125 313.796875 138.308594 315.292969 Z M 185.144531 308.285156 L 185.144531 384 L 198.859375 384 L 198.855469 308.285156 C 196.621094 308.457031 194.34375 308.574219 192 308.574219 C 189.65625 308.574219 187.378906 308.457031 185.144531 308.285156 Z M 185.144531 308.285156 " id="animate_18" data-original="#000000" fill="#439985" class=""></path>
</g></g>
</svg>