<svg width="14" height="15" viewBox="0 0 14 15" fill="none" xmlns="http://www.w3.org/2000/svg">
<path d="M6.99951 0.733459V1.82771" stroke="#00AAA1" stroke-linecap="round" stroke-linejoin="round"/>
<path fill-rule="evenodd" clip-rule="evenodd" d="M10.9995 2.92191L10.4995 3.46903L10.9993 2.92215L10.9995 2.92191Z" fill="#00AAA1"/>
<path d="M10.9995 2.92191L10.4995 3.46903" stroke="#00AAA1" stroke-linecap="round" stroke-linejoin="round"/>
<path d="M12.9995 7.29895H11.9995" stroke="#00AAA1" stroke-linecap="round" stroke-linejoin="round"/>
<path fill-rule="evenodd" clip-rule="evenodd" d="M10.9995 11.6759L10.4995 11.1288L10.9993 11.6757L10.9995 11.6759Z" fill="#00AAA1"/>
<path d="M10.9995 11.6759L10.4995 11.1288" stroke="#00AAA1" stroke-linecap="round" stroke-linejoin="round"/>
<path d="M6.99951 13.8645V12.7702" stroke="#00AAA1" stroke-linecap="round" stroke-linejoin="round"/>
<path fill-rule="evenodd" clip-rule="evenodd" d="M2.99951 11.6759L3.49951 11.1288L2.99974 11.6757L2.99951 11.6759Z" fill="#00AAA1"/>
<path d="M2.99951 11.6759L3.49951 11.1288" stroke="#00AAA1" stroke-linecap="round" stroke-linejoin="round"/>
<path d="M0.999573 7.29895H1.99957" stroke="#00AAA1" stroke-linecap="round" stroke-linejoin="round"/>
<path fill-rule="evenodd" clip-rule="evenodd" d="M2.99951 2.92191L3.49951 3.46903L2.99974 2.92215L2.99951 2.92191Z" fill="#00AAA1"/>
<path d="M2.99951 2.92191L3.49951 3.46903" stroke="#00AAA1" stroke-linecap="round" stroke-linejoin="round"/>
<path d="M7.00033 11.0505C8.89374 11.0505 10.4289 9.37065 10.4289 7.29877C10.4289 5.22689 8.89374 3.54706 7.00033 3.54706C5.10691 3.54706 3.57178 5.22689 3.57178 7.29877C3.57178 9.37065 5.10691 11.0505 7.00033 11.0505Z" stroke="#00AAA1" stroke-width="1.2" stroke-linejoin="round"/>
</svg>
