<svg xmlns="http://www.w3.org/2000/svg" width="512" height="512" viewBox="0 0 512 512" version="1.1"><path d="" stroke="none" fill="#080404" fill-rule="evenodd"/><path d="M 231.500 0.709 C 221.871 1.606, 201.620 5.283, 191.500 7.971 C 173.585 12.731, 160.472 17.642, 143.500 25.950 C 91.499 51.404, 51.192 91.716, 25.963 143.500 C 13.992 168.072, 6.609 191.408, 2.328 218.203 C -0.259 234.396, -0.267 277.845, 2.313 293.500 C 6.888 321.256, 14.143 344.250, 25.975 368.500 C 51.277 420.355, 91.469 460.539, 143.500 486.002 C 167.687 497.839, 190.691 505.103, 218.500 509.687 C 235.653 512.514, 278.811 512.240, 296.500 509.192 C 348.645 500.205, 394.974 477.278, 432.425 441.925 C 464.986 411.189, 489.746 370.202, 502.565 325.817 C 506.236 313.106, 511 287.782, 511 280.980 C 511 278.856, 511.450 276.840, 512 276.500 C 512.616 276.120, 513 267.767, 513 254.774 C 513 243.165, 512.669 233.998, 512.264 234.403 C 511.859 234.807, 510.973 230.161, 510.295 224.077 C 505.399 180.163, 485.316 132.597, 456.219 96 C 446.540 83.825, 428.152 65.440, 416 55.787 C 378.526 26.019, 334.104 7.332, 287.030 1.536 C 275.603 0.128, 242.949 -0.358, 231.500 0.709 M 180 96.995 C 157.776 99.318, 139.986 107.304, 124.876 121.740 C 108.886 137.017, 99.560 156.865, 97.030 181 C 95.756 193.158, 95.721 318.543, 96.989 330.500 C 98.415 343.957, 101.383 354.357, 107.003 365.585 C 121.548 394.651, 147.980 411.885, 182.902 415.072 C 190.372 415.754, 219.647 415.985, 264.525 415.716 C 323.225 415.364, 335.628 415.045, 341.500 413.734 C 379.568 405.232, 405.322 379.269, 413.647 341 C 415.235 333.699, 415.485 328.126, 415.417 301.500 C 415.347 274.242, 415.091 269.349, 413.293 260.968 C 407.601 234.429, 393.439 223.198, 363.316 221.334 L 353.132 220.704 352.779 191.102 C 352.433 162.080, 352.374 161.357, 349.793 154.193 C 340.691 128.932, 316.854 107.293, 288.815 98.837 C 281.770 96.712, 279.766 96.623, 234.500 96.421 C 208.650 96.305, 184.125 96.564, 180 96.995 M 188.500 177.896 C 172.578 185.267, 171.542 208.768, 186.744 217.704 L 191.500 220.500 233.500 220.500 C 274.588 220.500, 275.587 220.453, 279.500 218.347 C 295.688 209.635, 296.011 187.311, 280.073 178.636 L 275.229 176 233.865 176.022 C 195.736 176.042, 192.187 176.189, 188.500 177.896 M 0.425 256 C 0.425 267.825, 0.569 272.663, 0.746 266.750 C 0.923 260.837, 0.923 251.162, 0.746 245.250 C 0.569 239.338, 0.425 244.175, 0.425 256 M 190.519 292.598 C 185.666 294.374, 180.512 299.165, 177.809 304.413 C 176.219 307.498, 175.873 309.744, 176.171 315.024 C 176.622 323.009, 179.696 328.446, 186.185 332.741 L 190.353 335.500 253.926 335.801 C 297.928 336.010, 318.660 335.765, 321.267 335.006 C 323.338 334.403, 326.671 332.471, 328.674 330.713 C 341.727 319.252, 336.648 296.775, 319.920 291.977 C 317.857 291.385, 292.453 291.028, 255.507 291.070 C 204.693 291.129, 193.835 291.384, 190.519 292.598" stroke="none" fill="#040404" fill-rule="evenodd"/></svg>