<svg xmlns="http://www.w3.org/2000/svg" version="1.1" xmlns:xlink="http://www.w3.org/1999/xlink" xmlns:svgjs="http://svgjs.com/svgjs" width="512" height="512" x="0" y="0" viewBox="0 0 500 500" style="enable-background:new 0 0 512 512" xml:space="preserve"><g><path d="M326.146 342.294s3.536 120.243 3.764 136.276c0 0-17.231 2.004-26.538 0s-23.113-110.223-15.208-136.276 37.982 0 37.982 0zM396.272 342.294s3.536 120.243 3.764 136.276c0 0-17.231 2.004-26.538 0-9.307-2.004-23.113-110.223-15.208-136.276 7.907-26.052 37.982 0 37.982 0z" style="" fill="#fbd49e" data-original="#fbd49e"></path><path d="M350.289 380.95s-18.51 29.297-2.918 33.557c15.592 4.26 18.597-17.19 7.781-9.319-10.815 7.872-10.011 42.876 6.424 45.308s19.352-17.995 9.139-14.104c-10.213 3.891-23.967 23.344 10.875 24.803s24.991-51.552 16.724-48.147-5.343 8.939 4.383 10.884c9.727 1.945 16.487-48.472-2.66-59.072" style="" fill="#f5b29f" data-original="#f5b29f"></path><path d="M382.987 462.293c-.471 0-.952-.01-1.442-.029-17.916-.751-22.54-6.22-23.263-10.676a8.462 8.462 0 0 1-.1-.961c-4.745-2.07-8.266-7.077-10.082-14.46-1.546-6.291-1.602-13.964-.052-20.394a19.878 19.878 0 0 1-.957-.236c-3.094-.847-5.199-2.654-6.256-5.38-3.862-9.944 8.044-28.972 8.553-29.777.316-.5.975-.644 1.473-.334.498.315.647.974.333 1.472-.119.19-11.842 18.922-8.368 27.867.81 2.087 2.39 3.426 4.829 4.091.326.09.646.167.96.231 1.255-4.041 3.214-7.421 5.91-9.383 3.914-2.846 6.003-1.962 6.896-1.184 1.583 1.378 1.634 4.308.125 7.127-1.781 3.324-5.623 6.316-11.371 5.828-1.465 5.832-1.599 13.063-.001 19.562.957 3.889 3.214 10.083 8.186 12.688 1.129-5.696 7.12-11.101 11.976-12.951 3.505-1.337 5.347-.017 6.135.886 1.715 1.966 1.671 5.475-.109 8.732-1.038 1.897-5.195 7.986-14.941 6.537-.342-.05-.679-.113-1.011-.19.937 5.121 8.465 8.234 21.226 8.768 9.932.436 16.908-3.634 20.677-12.041 3.244-7.242 3.329-16.241 2.059-23.188a3.87 3.87 0 0 1-1.883.081c-5.999-1.199-9.757-3.743-10.053-6.806-.134-1.387.398-4.024 5.472-6.111.778-.323 2.338-.592 4.06 1.18 1.529 1.578 2.872 4.393 3.83 7.902.803-1.076 1.588-2.615 2.297-4.548 4.821-13.144 5.234-43.159-8.574-50.803a1.067 1.067 0 1 1 1.034-1.868c15.021 8.315 14.716 39.304 9.544 53.408-1.195 3.255-2.471 5.221-3.7 6.353 1.538 7.604 1.353 17.479-2.138 25.271-2.758 6.155-8.677 13.336-21.274 13.336zm-22.598-13.14c.432.121.879.219 1.344.288 8.385 1.226 11.883-3.859 12.755-5.45 1.312-2.4 1.468-5.05.374-6.305-.935-1.074-2.566-.751-3.766-.296-4.905 1.869-10.009 7.038-10.707 11.763zm38.693-35.194c-.174 0-.294.05-.362.077-2.775 1.143-4.292 2.577-4.161 3.935.16 1.647 2.802 3.807 8.348 4.917.333.065.671.027 1.02-.108-.89-3.755-2.172-6.687-3.493-8.048-.61-.631-1.058-.773-1.352-.773zm-48.301.029c4.506.252 7.488-2.127 8.883-4.729 1.086-2.029 1.029-3.92.353-4.508-.535-.471-1.934-.375-4.236 1.301-2.134 1.553-3.838 4.393-5 7.936z" style="" fill="#251426" data-original="#251426"></path><path d="M276.562 380.95s-18.51 29.297-2.918 33.557c15.592 4.26 18.597-17.19 7.781-9.319-10.815 7.872-10.011 42.876 6.424 45.308s19.352-17.995 9.139-14.104c-10.213 3.891-23.967 23.344 10.875 24.803s24.628-36.962 16.36-33.557-8.754 9.727.973 11.672c9.727 1.945 26.245-38.521 7.097-49.12" style="" fill="#f5b29f" data-original="#f5b29f"></path><path d="M309.79 462.306c-.64 0-1.297-.015-1.972-.042-17.916-.751-22.54-6.22-23.263-10.676a8.462 8.462 0 0 1-.1-.961c-4.745-2.07-8.266-7.077-10.082-14.46-1.546-6.291-1.602-13.964-.052-20.394a20.174 20.174 0 0 1-.957-.236c-3.094-.847-5.199-2.654-6.256-5.38-3.862-9.944 8.044-28.972 8.553-29.777a1.068 1.068 0 0 1 1.806 1.138c-.119.19-11.842 18.922-8.368 27.867.81 2.087 2.389 3.426 4.829 4.091.326.09.646.167.961.231 1.255-4.043 3.214-7.421 5.91-9.383 3.915-2.848 6-1.962 6.895-1.184 1.583 1.378 1.634 4.308.125 7.125-1.781 3.326-5.625 6.318-11.371 5.83-1.464 5.832-1.599 13.061-.001 19.56.957 3.891 3.213 10.086 8.186 12.69 1.129-5.696 7.12-11.101 11.976-12.951 3.503-1.337 5.348-.017 6.135.886 1.715 1.966 1.671 5.475-.109 8.732-1.039 1.897-5.197 7.986-14.941 6.537-.342-.05-.679-.113-1.011-.19.937 5.121 8.465 8.234 21.226 8.768 13.834.592 19.424-5.275 21.67-10.292 1.717-3.832 1.964-8.09 1.376-11.797-1.939 1.772-3.978 2.719-5.968 2.319-4.855-.972-7.797-3.159-8.072-6.001-.285-2.93 2.297-5.809 6.903-7.704 1.686-.699 3.501-.163 5.111 1.499 1.271 1.309 2.347 3.199 3.121 5.421 1.843-2.538 3.632-5.94 5.051-9.81 4.506-12.285 4.607-27.142-5.323-32.638a1.067 1.067 0 1 1 1.034-1.868c11.791 6.526 10.76 23.063 6.294 35.242-1.561 4.258-3.807 8.555-6.336 11.614 1.014 4.554.835 9.96-1.243 14.598-2.405 5.366-8.13 11.596-21.737 11.596zm-23.129-13.153c.432.121.879.219 1.344.288 8.385 1.226 11.883-3.859 12.754-5.45 1.312-2.4 1.468-5.05.374-6.305-.936-1.074-2.567-.751-3.766-.296-4.904 1.869-10.007 7.038-10.706 11.763zm38.626-20.659c-.224 0-.444.044-.658.131-3.579 1.474-5.774 3.643-5.591 5.526.175 1.814 2.555 3.351 6.367 4.114 1.432.279 3.205-.732 5.016-2.69-.708-2.56-1.808-4.679-3.027-5.936-.738-.761-1.445-1.145-2.107-1.145zm-48.233-14.506c4.475.252 7.489-2.127 8.881-4.729 1.086-2.029 1.03-3.92.354-4.508-.541-.471-1.936-.373-4.236 1.301-2.133 1.553-3.837 4.393-4.999 7.936z" style="" fill="#251426" data-original="#251426"></path><path d="M128.965 342.294s3.536 120.243 3.764 136.276c0 0-17.231 2.004-26.538 0S83.078 368.347 90.984 342.294s37.981 0 37.981 0zM199.091 342.294s3.536 120.243 3.764 136.276c0 0-17.231 2.004-26.538 0-9.306-2.004-23.113-110.223-15.208-136.276 7.906-26.052 37.982 0 37.982 0z" style="" fill="#fbd49e" data-original="#fbd49e"></path><path d="M153.108 380.95s-14.397 22.179-2.918 33.557c13.817 13.696 22.086-10.081 11.27-2.21-10.815 7.872-13.499 35.767 2.935 38.199s19.352-17.995 9.139-14.104-23.967 23.344 10.875 24.803 24.628-36.962 16.36-33.557-8.754 9.727.973 11.672c9.727 1.945 26.245-38.521 7.097-49.12" style="" fill="#f5b29f" data-original="#f5b29f"></path><path d="M186.337 462.306c-.64 0-1.297-.015-1.973-.042-17.917-.751-22.541-6.22-23.264-10.676-.049-.3-.08-.6-.097-.901-4.277-1.712-7.287-5.484-8.621-10.909-1.619-6.581-.474-14.548 2.472-20.68-1.656-.701-3.472-1.906-5.416-3.832-11.958-11.854 2.167-33.962 2.774-34.898.32-.496.983-.636 1.476-.313.495.319.636.98.315 1.476-.139.215-13.79 21.585-3.062 32.217 1.809 1.793 3.454 2.865 4.919 3.449 1.386-2.377 3.065-4.377 4.971-5.763 3.781-2.752 5.441-1.814 6.096-1.013 1.301 1.601.269 4.883-2.254 7.169-1.026.93-3.821 2.967-7.802 2.146-2.837 5.694-3.954 13.276-2.416 19.535.813 3.303 2.636 7.248 6.706 9.166 1.082-5.73 7.111-11.182 11.993-13.04 3.502-1.341 5.344-.019 6.134.886 1.715 1.966 1.671 5.475-.109 8.732-1.038 1.897-5.192 7.986-14.941 6.537a14.74 14.74 0 0 1-1.009-.183c.941 5.119 8.47 8.228 21.225 8.762 13.84.592 19.422-5.275 21.669-10.29 1.718-3.834 1.965-8.092 1.377-11.8-1.941 1.772-3.975 2.719-5.969 2.319-4.855-.972-7.797-3.159-8.072-6.001-.285-2.93 2.297-5.809 6.903-7.704 1.685-.699 3.501-.163 5.112 1.499 1.27 1.309 2.346 3.199 3.121 5.421 1.842-2.54 3.631-5.94 5.05-9.81 4.506-12.285 4.607-27.142-5.323-32.638a1.067 1.067 0 1 1 1.034-1.868c11.791 6.526 10.76 23.063 6.294 35.242-1.561 4.256-3.807 8.555-6.336 11.614 1.015 4.554.836 9.96-1.243 14.598-2.403 5.363-8.127 11.593-21.734 11.593zm-23.132-13.136c.43.111.877.2 1.346.271 8.381 1.226 11.883-3.859 12.755-5.45 1.312-2.4 1.469-5.05.374-6.305-.935-1.074-2.565-.751-3.765-.296-4.91 1.871-10.02 7.051-10.71 11.78zm38.628-20.676c-.224 0-.444.044-.658.131-3.579 1.474-5.774 3.643-5.591 5.526.175 1.814 2.555 3.351 6.367 4.114 1.428.279 3.207-.732 5.016-2.69-.708-2.563-1.807-4.679-3.025-5.936-.74-.761-1.446-1.145-2.109-1.145zm-43.85-10.751c2.554.259 4.359-.922 5.257-1.737 1.897-1.718 2.355-3.841 2.031-4.239-.072-.088-.972-.215-3.182 1.393-1.55 1.128-2.933 2.707-4.106 4.583z" style="" fill="#251426" data-original="#251426"></path><path d="M320.335 48.424s2.065-32.233 35.053-25.553 11.851 54.778 7.723 41.417c-4.128-13.36 24.43-28.057 42.884-9.352s.736 54.778-3.765 41.417 6.275-27.599 26.271 2.901-4.11 57.221-10.761 49.205c-6.651-8.016-11.846-22.713 5.448-14.696 17.294 8.016 27.702 70.356-6.371 75.026-28.82 3.95-20.626-19.526-9.246-12.846 11.379 6.68 32.075 66.133 9.251 74.043-22.824 7.91-22.413-17.971-9.993-10.902 12.419 7.069 16.453 53.842-3.634 65.866-20.087 12.024-15.248-8.096-1.363-4.088s24.967 40.455-17.261 64.503-46.124-27.183-34.211-20.503c11.913 6.68 8.123 34.25-30.485 35.586s-70.778-20.854-52.575-30.206c18.203-9.352 13.194 45.475-28.776 42.803-41.971-2.672-57.068-27.358-35.665-32.094 14.816-3.278 9.779 36.025-47.745 40.143-36.141 2.588-79.153-28.724-48.031-34.068s5.756 18.62-43.158 8.6c-36.346-7.446-36.589-91.898-8.627-105.258 27.962-13.36 18.728 16.653 11.328 15.743-12.231-1.503-6.818-18.704-6.818-18.704s-2.957-56.114 35.883-62.794 53.842 38.745 35.653 33.401c-18.189-5.344 7.4-55.304 40.03-44.352s23.355 51.13 15.968 36.385 28.289-72.863 73.99-50.15 33.628 47.429 17.543 44.757c-16.085-2.672-11.616-33.654 12.83-46.699 40.771-21.758 21.732 15.708 8.567-.062-10.308-12.346-28.462-50.769-6.919-69.474 21.543-18.705 24.048 19.298 7.733 16.032-16.315-3.266-35.664-52.501-13.216-73.909 21.005-20.033 43.932-31.737 43.932-11.696s-13.529.147-11.467-10.422z" style="" fill="#f5b29f" data-original="#f5b29f"></path><path d="M150.789 422.314c-23.196 0-48.769-12.771-54.366-23.551-10.126.947-21.364.231-32.715-2.091-14.954-3.065-25.658-19.396-28.632-43.689-4.068-33.22 7.144-57.551 19.757-63.579a52.25 52.25 0 0 1 3.756-1.628c.058-.217.106-.388.141-.505-.134-3.645-1.395-57.146 36.776-63.712a46.62 46.62 0 0 1 7.852-.686c12.217 0 20.685 5.071 25.869 9.698 5.911-10.2 17.728-21.541 32.764-21.541 3.248 0 6.517.544 9.72 1.62 10.27 3.447 15.975 9.581 19.084 14.679 9.127-17.056 27.593-33.703 49.476-33.703 7.193 0 14.437 1.787 21.534 5.313 5.95 2.959 11.202 6.093 15.626 9.325 3.79-4.612 8.418-8.395 13.769-11.251a115.885 115.885 0 0 1 5.152-2.592c-10.26-15.109-20.619-42.713-9.121-60.574-10.907-16.825-16.935-48.022-.101-64.079 12.16-11.595 23.825-19.46 32.172-21.714.207-2.275 3.133-27.16 27.588-27.16 2.724 0 5.655.313 8.71.932 17.334 3.511 19.271 17.64 19.02 25.157a30.097 30.097 0 0 1 10.718-1.972c5.639 0 13.932 1.593 21.416 9.176 6.738 6.831 9.684 17.1 8.131 28.265 4.49 2.925 9.367 8.378 14.508 16.218 11.184 17.06 8.944 33.403 3.016 43.251 7.837 13.557 11.221 38.03 3.796 53.531-3.724 7.773-9.864 12.644-17.814 14.162 7.667 16.403 12.852 39.952 7.625 52.592-1.833 4.433-4.809 7.392-8.847 8.791-.504.173-.997.334-1.478.475 4.426 14.913 3.946 40.023-8.181 51.52 5.434 4.963 8.459 13.883 7.764 23.161-.67 8.955-5.482 26.076-30.178 40.14-13.527 7.702-25.02 8.626-32.869 2.884-6.39 7.467-17.809 11.837-32.319 12.34-1.131.038-2.26.058-3.38.058-14.87 0-29.788-3.361-41.154-9.249-5.981 13.726-18.574 21.881-33.915 21.881h-.004c-.982 0-1.979-.031-3.001-.096-14.278-.909-26.893-4.491-35.661-10.106-6.084 6.216-19.982 16.178-47.605 18.157a61.927 61.927 0 0 1-4.391.154c-.002-.002-.006-.002-.008-.002zm-52.059-23.8c5.978 9.892 30.475 21.662 52.059 21.664h.006c1.435 0 2.861-.05 4.239-.15 26.53-1.9 39.966-11.247 45.961-17.246-6.362-4.583-9.613-9.994-8.737-14.635.756-4.001 4.437-6.929 10.367-8.24 3.468-.769 6.368.594 7.65 3.545 1.778 4.089.555 11.445-6.01 18.958 8.452 5.307 20.575 8.693 34.323 9.568.977.063 1.929.092 2.865.092h.005c20.862-.002 29.458-14.904 32.027-20.767-8-4.516-12.538-9.723-12.486-14.368.024-2.137 1.051-5.198 5.809-7.642 3.98-2.045 7.476-1.387 9.547 1.676 2.749 4.068 2.659 11.76-.177 19.366 10.955 5.711 25.952 9.104 40.35 9.104 1.096 0 2.2-.019 3.307-.058 13.88-.48 24.742-4.575 30.741-11.558-6.787-6.218-8.164-16.247-6.443-21.059 1.18-3.307 3.842-4.46 6.747-2.834 3.219 1.806 5.43 4.981 6.222 8.941.963 4.814-.332 10.09-3.558 14.623 7.168 5.192 17.814 4.166 30.495-3.057 23.837-13.574 28.467-29.913 29.106-38.443.656-8.757-2.181-17.114-7.264-21.597a20.809 20.809 0 0 1-2.139 1.468c-4.47 2.677-8.105 4.035-10.804 4.035-2.417 0-3.432-1.134-3.822-1.808-.691-1.199-.577-2.771.315-4.316 1.204-2.085 4.222-4.52 8.767-4.52 1.275 0 2.597.196 3.928.58 1.265.365 2.507.972 3.702 1.806 10.637-9.871 12.635-33.534 7.797-49.631-6.931 1.537-12.601-.261-15.117-4.618-1.495-2.59-1.624-5.713-.329-7.957 1.677-2.907 5.27-3.499 9.176-1.278 3.069 1.747 5.715 5.638 7.681 11.282a33.23 33.23 0 0 0 1.435-.461c3.435-1.191 5.983-3.743 7.573-7.588 5.054-12.225-.236-35.44-7.856-51.443-1.945.24-3.788.361-5.489.361-9.129.002-12.481-3.447-13.668-5.5-1.327-2.298-1.316-5.061.03-7.392 2.133-3.693 6.868-4.85 11.048-2.394 2.787 1.637 6.083 6.097 9.319 12.596 7.629-1.27 13.297-5.669 16.851-13.09 6.967-14.541 3.995-37.361-3.192-50.599-3.15 4.379-6.978 7.037-10.244 7.037-1.577.002-2.934-.63-3.925-1.824-4.246-5.117-7.8-12.598-6.023-16.385.511-1.086 1.681-2.381 4.359-2.381 2.099 0 4.919.815 8.382 2.419 2.665 1.236 5.18 3.609 7.495 7.068 5.164-9.366 6.761-24.335-3.523-40.021-4.608-7.029-9.109-12.196-13.111-15.067-1.693 8.709-5.806 15.546-9.507 15.549h-.001c-1.163 0-2.761-.63-3.771-3.628-1.714-5.083-1.331-10.442.973-13.651 2.323-3.232 6.259-3.92 10.685-1.743.661-5.807.643-17.217-7.642-25.613-6.966-7.06-14.664-8.543-19.896-8.543-3.748 0-7.495.761-10.877 2.204-.95 9.514-5.355 18.338-9.233 18.34-.997 0-2.35-.536-3.138-3.086-1.867-6.041 2.375-12.832 10.347-16.681.518-7.84-1.204-20.753-17.261-24.004-14.082-2.861-24.283 1.176-29.943 11.777-2.63 4.929-3.485 9.89-3.736 11.885a15.139 15.139 0 0 1 2.358-.196c4.111 0 9.011 1.987 9.011 11.462 0 6.41-1.381 9.66-4.105 9.66-1.296 0-2.669-.828-4.079-2.462-3.005-3.478-5.79-10.169-5.623-15.697-7.876 2.433-19.105 10.142-30.455 20.968-15.761 15.031-10.253 44.298-.046 60.643a29.59 29.59 0 0 1 4.093-4.345c4.175-3.624 7.98-5.463 11.31-5.463 6.033 0 8.781 5.863 8.781 11.312 0 6.091-3.338 12.258-9.72 12.258-.692 0-1.416-.075-2.149-.221-4.041-.809-8.38-4.241-12.326-9.723-10.125 17.044.289 43.902 9.778 57.749 5.472-2.406 9.898-3.624 13.163-3.624 5.544 0 5.975 3.457 5.976 4.516 0 3.845-4.499 8.541-9.749 8.543-2.102 0-5.242-.761-8.266-4.383a46.265 46.265 0 0 1-1.85-2.381 110.376 110.376 0 0 0-5.394 2.702c-5.075 2.709-9.465 6.289-13.065 10.651 11.87 9.208 17.303 19.544 14.552 27.79-1.739 5.213-6.621 8.582-12.438 8.582h-.003c-.841 0-1.7-.071-2.553-.213-4.354-.724-7.526-3.349-9.175-7.594-2.981-7.671-.329-18.874 6.592-28.17-4.314-3.144-9.442-6.201-15.26-9.093-6.797-3.378-13.723-5.09-20.583-5.09-21.52 0-39.656 16.898-48.234 33.806 4.337 8.607 4.299 18.399 1.726 22.659-1.048 1.737-2.254 2.102-3.081 2.102-1.588 0-3.034-1.28-4.298-3.803-2.204-4.4-.985-12.196 3.256-20.93-3.824-6.962-10.246-12.114-18.608-14.921-2.983-1.001-6.024-1.508-9.04-1.508-14.343 0-25.638 11.107-31.167 20.916 7.818 7.813 10.566 17.194 8.673 21.908-1.245 3.094-4.34 4.258-8.458 3.048-2.747-.807-4.775-2.613-5.864-5.225-1.964-4.706-.839-11.883 2.998-19.314-4.857-4.456-12.968-9.489-24.815-9.489a44.33 44.33 0 0 0-7.49.657c-35.844 6.164-35.165 56.47-35.013 61.314 2.352-.738 4.456-1.111 6.27-1.111 5.118 0 8.174 3.073 8.174 8.221.001 5.778-3.926 13.109-8.343 13.111h-.001c-.155 0-.309-.01-.463-.029-3.052-.375-5.371-1.685-6.894-3.893-2.63-3.812-2.206-9.443-1.569-12.973a57.63 57.63 0 0 0-2.275 1.026c-15.42 7.369-21.546 37.002-18.558 61.393 2.858 23.338 12.929 38.985 26.941 41.854 10.908 2.235 21.69 2.955 31.458 2.114-.509-1.833-.363-3.559.438-5.05 1.493-2.779 5.148-4.687 10.866-5.669 3.104-.532 5.798-.803 8.007-.803 5.559 0 6.814 1.722 6.887 3.167.209 4.133-10.006 8.589-23.065 10.173zm105.805-16.691c-.455 0-.941.056-1.448.169-5.042 1.116-8.142 3.442-8.73 6.551-.729 3.859 2.294 8.555 8.115 12.671 6.08-6.854 7.321-13.522 5.847-16.912-.707-1.622-2.015-2.479-3.784-2.479zm-89.629 5.482c-2.089 0-4.661.261-7.646.774-4.965.853-8.196 2.433-9.345 4.573-.589 1.097-.64 2.381-.154 3.828 14.637-1.635 21.986-6.339 21.901-8.034-.021-.374-1.207-1.141-4.756-1.141zm156.252-17.071c-1.003 0-2.138.321-3.374.955-3.061 1.572-4.625 3.513-4.65 5.769-.042 3.743 4.102 8.311 11.148 12.342 2.464-6.797 2.614-13.718.303-17.135-.865-1.282-2.018-1.931-3.427-1.931zm77.168-4.912c-1.167 0-1.831 1.174-2.183 2.158-1.542 4.312-.034 13.228 5.75 18.649 2.822-4.024 3.955-8.649 3.116-12.84-.668-3.338-2.505-6.001-5.173-7.496-.557-.313-1.065-.471-1.51-.471zm49.871-43.933c-3.634 0-5.998 1.86-6.917 3.453-.493.855-.611 1.668-.316 2.179.276.48.977.742 1.974.742 1.586 0 4.558-.648 9.707-3.73.497-.298.986-.623 1.463-.974a10.138 10.138 0 0 0-2.574-1.174 12.063 12.063 0 0 0-3.337-.496zM60.393 289.385c-.664 2.944-1.583 8.993.961 12.679 1.179 1.71 2.944 2.686 5.398 2.988h.008c2.768 0 6.404-5.671 6.403-10.963 0-2.777-1.048-6.086-6.038-6.086-1.869 0-4.132.465-6.732 1.382zm342.431-30.474c-1.553 0-2.378.863-2.796 1.589-.907 1.57-.775 3.91.328 5.822.888 1.537 3.167 4.116 8.461 4.116 1.288 0 2.676-.158 4.142-.469-1.767-4.992-4.112-8.507-6.662-9.958-1.279-.728-2.448-1.1-3.473-1.1zm-273.048-22.852c-3.267 6.583-4.28 12.978-2.63 16.931.844 2.025 2.357 3.369 4.497 3.999 3.014.882 5.033.296 5.874-1.797 1.562-3.893-.986-12.131-7.741-19.133zm61.071-4.008c-3.328 7.41-4.314 14.001-2.553 17.517.969 1.933 1.869 2.623 2.388 2.623.386 0 .843-.39 1.253-1.07 1.869-3.094 2.368-11.15-1.088-19.07zm86.974-20.823c-6.394 8.605-8.989 19.216-6.309 26.112 1.361 3.503 3.967 5.667 7.536 6.262.738.123 1.405.15 2.206.183 4.882 0 8.969-2.796 10.412-7.123 2.452-7.35-2.715-16.811-13.845-25.434zm125.67-15.424c-1.901 0-3.612 1.001-4.58 2.677-.96 1.664-.972 3.628-.031 5.257.957 1.656 3.764 4.433 11.819 4.433 1.398 0 2.902-.085 4.488-.259-2.906-5.699-5.846-9.691-8.158-11.049-1.196-.702-2.385-1.059-3.538-1.059zm-103.9-.504c.51.686 1.011 1.326 1.497 1.908 2.004 2.4 4.233 3.616 6.627 3.616 4.202-.002 7.614-3.878 7.614-6.405-.001-1.97-2.089-2.383-3.841-2.383-2.018-.002-5.691.58-11.897 3.264zm115.663-62.791c-1.884 0-2.292.869-2.426 1.155-1.171 2.494 1.454 8.955 5.733 14.112 2.255 2.717 7.567-.24 11.339-5.886-2.223-3.545-4.69-6.013-7.162-7.158-3.18-1.474-5.697-2.223-7.484-2.223zm-125.449 1.347c3.756 5.432 7.818 8.814 11.487 9.548a8.858 8.858 0 0 0 1.73.179c4.979 0 7.585-5.094 7.585-10.123 0-4.42-2.08-9.176-6.646-9.176-2.761 0-6.188 1.708-9.91 4.942a27.246 27.246 0 0 0-4.246 4.63zM408.002 82.16c-1.691 0-3.062.715-4.076 2.127-1.917 2.669-2.185 7.271-.685 11.727.274.811.865 2.173 1.748 2.173 2.053 0 6.032-5.813 7.565-14.65-1.662-.914-3.191-1.377-4.552-1.377zm-86.774-32.366c-.378 4.898 2.269 11.612 5.07 14.854.931 1.078 1.853 1.722 2.464 1.722.731 0 1.969-1.585 1.969-7.525-.001-7.369-3.146-10.286-9.503-9.051zm50.953.661c-6.233 3.43-9.507 8.805-8.052 13.518.307.99.717 1.58 1.099 1.58 1.787 0 5.772-6.399 6.953-15.098z" style="" fill="#251426" data-original="#251426"></path><path d="M72.908 372.333s-12.037 37.914 3.554 42.174c15.592 4.26 18.597-17.19 7.781-9.319s-10.011 42.876 6.424 45.308 19.352-17.995 9.139-14.104-23.967 23.344 10.875 24.803 24.628-36.962 16.36-33.557-8.754 9.727.973 11.672c9.727 1.945 30.23-51.751 11.083-62.35" style="" fill="#f5b29f" data-original="#f5b29f"></path><path d="M112.609 462.306c-.64 0-1.297-.015-1.972-.042-17.917-.751-22.541-6.22-23.264-10.676a8.462 8.462 0 0 1-.1-.961c-4.744-2.07-8.265-7.077-10.081-14.46-1.546-6.291-1.602-13.962-.052-20.394a19.913 19.913 0 0 1-.958-.236c-2.764-.755-4.911-2.508-6.382-5.213-6.289-11.556 1.747-37.227 2.092-38.314a1.067 1.067 0 1 1 2.035.647c-.081.256-8.107 25.888-2.251 36.648 1.199 2.204 2.857 3.568 5.069 4.172.326.09.646.167.961.231 1.255-4.043 3.214-7.421 5.91-9.383 3.916-2.848 6.002-1.962 6.895-1.184 1.583 1.378 1.634 4.308.125 7.125-1.782 3.326-5.634 6.318-11.37 5.83-1.465 5.832-1.599 13.063-.001 19.562.957 3.889 3.213 10.081 8.186 12.688 1.128-5.699 7.12-11.101 11.976-12.951 3.505-1.341 5.346-.019 6.134.886 1.715 1.966 1.671 5.475-.109 8.732-1.038 1.897-5.191 7.994-14.94 6.537-.342-.05-.68-.113-1.011-.19.936 5.121 8.464 8.234 21.226 8.768 13.843.584 19.422-5.275 21.669-10.29 1.802-4.02 1.985-8.507 1.285-12.333-1.996 2.098-4.011 3.221-5.877 2.852-4.855-.972-7.797-3.159-8.072-6.001-.284-2.93 2.297-5.809 6.903-7.704 1.684-.699 3.5-.163 5.112 1.499 1.142 1.178 2.127 2.823 2.876 4.756 2.129-3.151 4.404-7.619 6.464-13.236 5.93-16.17 7.674-36.141-2.506-41.777a1.067 1.067 0 1 1 1.034-1.868c11.342 6.278 9.918 26.814 3.477 44.381-2.073 5.651-4.8 11.201-7.668 15.019 1.192 4.689 1.105 10.411-1.079 15.284-2.405 5.366-8.128 11.596-21.736 11.596zM89.48 449.153c.431.121.879.219 1.344.288 8.395 1.226 11.883-3.859 12.753-5.45 1.312-2.4 1.469-5.05.374-6.305-.936-1.074-2.566-.751-3.765-.296-4.904 1.869-10.007 7.038-10.706 11.763zm38.626-20.659c-.224 0-.444.044-.658.131-3.579 1.474-5.774 3.643-5.591 5.526.176 1.814 2.556 3.351 6.367 4.114 1.198.242 2.918-.899 4.85-3.261-.708-2.304-1.733-4.204-2.86-5.365-.74-.761-1.445-1.145-2.108-1.145zm-48.234-14.506c4.489.252 7.488-2.127 8.881-4.729 1.086-2.029 1.03-3.92.354-4.508-.543-.471-1.937-.373-4.236 1.301-2.133 1.553-3.836 4.393-4.999 7.936z" style="" fill="#251426" data-original="#251426"></path><path d="M358.71 152.075c-.69-.815-56.581 14.363-33.095-26.981s56.225-42.411 58.36-12.875c0 0 11.462-30.202 28.684-24.353 17.221 5.849 9.037 36.937 7.969 37.228-1.068.292 45.143 15.157 45.143 29.203.001 14.046-41.469 75.214-107.061-2.222zM316.191 92.102S285.19-2.514 270.254 13.519c-14.937 16.032 30.015 84.17 30.015 84.17l15.922-5.587zM388.677 69.632S396.426-3.85 416.054.158c19.628 4.008-15.036 77.49-15.036 77.49l-12.341-8.016z" style="" fill="#fbd49e" data-original="#fbd49e"></path><path d="M375.949 137.434c-4.353 0-8.131-6.245-11.245-18.599-.08-.319-.133-.536-.162-.623a1.074 1.074 0 0 1 .687-1.343 1.064 1.064 0 0 1 1.341.671c.031.096.101.365.204.774 4.119 16.339 8.21 17.26 9.768 16.916.626-.142 1.122-.532 1.518-1.189 2.435-4.039.056-15.761-1.065-19.938a1.067 1.067 0 1 1 2.062-.554c.174.648 4.231 15.957.832 21.595-.703 1.163-1.669 1.893-2.873 2.166-.36.082-.716.124-1.067.124zM447.149 155.366a4.198 4.198 0 0 1-1.656-.336c-4.565-1.939-5.056-11.691-5.097-12.796a1.068 1.068 0 0 1 1.027-1.107c.591.004 1.084.438 1.106 1.028.139 3.653 1.292 9.846 3.799 10.909 1.15.496 2.686-.119 4.564-1.799a1.068 1.068 0 1 1 1.425 1.589c-1.866 1.672-3.598 2.512-5.168 2.512zM422.608 180.36c-2.442.002-4.434-.673-5.963-2.025-7.023-6.199-1.096-24.279-.839-25.046a1.064 1.064 0 0 1 1.35-.676c.559.188.861.792.674 1.351-1.616 4.852-4.726 18.399.229 22.771 2.75 2.429 7.786 1.922 14.963-1.512a1.068 1.068 0 0 1 .921 1.927c-4.472 2.14-8.261 3.21-11.335 3.21zM405.61 128.345c-.207 0-.418-.04-.623-.119-3.448-1.343-7.146-15.221-8.198-19.441a1.07 1.07 0 0 1 2.073-.517c1.92 7.713 4.908 16.364 6.627 17.798 1.066-2.016 1.244-12.296.774-21.224a1.068 1.068 0 0 1 1.01-1.122c.559-.063 1.092.421 1.123 1.009.335 6.37.83 21.389-1.807 23.295a1.664 1.664 0 0 1-.979.321zM306.326 87.461c-.415 0-.81-.244-.983-.651-5.921-13.962-13.635-29.17-16.435-30.897.086 3.253 6.958 17.383 13.986 29.959a1.068 1.068 0 0 1-1.864 1.042c-4.847-8.674-15.905-29.202-13.923-32.496.312-.521.902-.809 1.473-.797 4.562.098 14.618 22.659 18.729 32.354a1.068 1.068 0 0 1-.983 1.486zM399.224 69.692a1.07 1.07 0 0 1-.971-1.51c7.056-15.526 11.724-29.869 10.194-31.322-3.141 1.457-8.663 16.614-11.439 25.838a1.067 1.067 0 0 1-2.045-.617c1.246-4.137 7.697-24.886 12.439-27.1.822-.384 1.49-.252 1.907-.073.379.163.897.523 1.205 1.32 2.061 5.319-9.044 30.038-10.317 32.838a1.067 1.067 0 0 1-.973.626zM332.679 120.111a1.05 1.05 0 0 1-.692-.259c-.314-.269-7.615-6.772-2.595-22.49 2.608-8.165 6.414-10.238 9.146-10.538a6.83 6.83 0 0 1 1.168-.031c.956-3.478 2.648-6.975 5.327-9.539 2.704-2.588 7.541-5.159 15.222-2.754 2.728.857 4.907 1.827 6.647 2.834 2.584-3.849 7.359-6.508 14.069-3.72 13.716 5.703 11.14 19.675 11.112 19.817a1.068 1.068 0 0 1-2.095-.411c.097-.505 2.244-12.41-9.836-17.433-6.358-2.646-9.872.609-11.448 2.909 3.857 2.782 4.793 5.634 5.009 7.064.301 1.995-.372 3.828-1.758 4.783-1.299.897-2.959.897-4.554 0-3.352-1.885-3.41-7.083-1.544-11.145-1.598-.93-3.638-1.843-6.242-2.658-5.371-1.687-9.779-.926-13.108 2.258-2.333 2.233-3.834 5.319-4.706 8.407 2.514.84 4.584 2.779 5.507 4.36 1.173 2.004.293 4.921-1.099 6.923-1.319 1.895-2.979 2.859-4.416 2.621-.888-.156-2.076-.83-2.691-3.146-.535-2.014-.599-5.407.105-9.043a4.601 4.601 0 0 0-.437.029c-3.017.332-5.558 3.468-7.347 9.066-4.559 14.277 1.69 19.988 1.958 20.225a1.068 1.068 0 0 1-.702 1.871zm8.628-30.828c-.647 3.297-.609 6.368-.14 8.132.246.928.619 1.522.996 1.589.491.111 1.425-.484 2.294-1.735 1.151-1.656 1.585-3.645 1.009-4.627-.688-1.178-2.272-2.677-4.159-3.359zm26.36-8.895c-1.424 3.349-1.101 7.035.782 8.094.869.488 1.685.523 2.295.104.708-.49 1.037-1.526.859-2.706-.134-.88-.787-3.136-3.936-5.492z" style="" fill="#251426" data-original="#251426"></path><path d="M419.88 179.995a1.067 1.067 0 0 1-.818-1.751l23.38-27.959a1.067 1.067 0 1 1 1.638 1.367l-23.38 27.959a1.061 1.061 0 0 1-.82.384z" style="" fill="#251426" data-original="#251426"></path><circle cx="359.72" cy="140.943" r="7.303" style="" fill="#f19a86" data-original="#f19a86"></circle><circle cx="419.259" cy="133.64" r="7.303" style="" fill="#f19a86" data-original="#f19a86"></circle><path d="M378.174 495.897c-.341 0-.828-.231-1.032-.496-1.035-1.351-5.222-14.216-6.48-18.126a1.068 1.068 0 0 1 2.033-.655c2.185 6.791 4.75 14.329 5.792 16.762 1.817-1.678 6.391-7.769 10.277-13.424.201-.292.479-.419.893-.463.357.004.688.188.882.486 3.632 5.596 7.655 10.436 9.026 10.897.824-1.585.382-10.081-.587-17.377a1.069 1.069 0 0 1 .917-1.199 1.07 1.07 0 0 1 1.199.92c1.104 8.317 1.895 18.48-.604 19.656-2 .94-5.643-2.563-10.87-10.405-9.283 13.367-10.889 13.409-11.428 13.422-.005.002-.012.002-.018.002zM310.266 497.356c-.139 0-.272-.017-.381-.056-.515-.183-2.08-.738-7.532-18.415a1.066 1.066 0 0 1 .705-1.334 1.06 1.06 0 0 1 1.334.705c2.045 6.631 4.584 13.862 5.875 16.332.978-2.154 2.887-7.934 4.362-13.013a1.07 1.07 0 0 1 1.835-.398c4.524 5.265 10.039 11.105 11.973 12.402.394-1.904.553-8.935.407-14.983a1.07 1.07 0 0 1 1.042-1.093c.608-.029 1.078.452 1.094 1.043.378 15.784-.928 16.797-1.357 17.129-.764.592-2.025 1.56-13.495-11.622-1.76 5.903-3.899 12.302-5.119 13.115-.185.121-.475.188-.743.188zM185.215 500c-1.169 0-3.738-1.9-10.681-20.159-.21-.55.067-1.168.618-1.378a1.073 1.073 0 0 1 1.377.619c3.034 7.975 7.062 16.975 8.673 18.597 1.057-1.645 3.067-10.588 4.336-18.388a1.07 1.07 0 0 1 1.99-.344c3.828 6.956 8.714 14.694 10.619 16.276.672-2.54.231-10.899-.353-16.543a1.068 1.068 0 0 1 .953-1.172c.578-.075 1.11.365 1.172.951.268 2.59 1.52 15.644-.149 18.401a1.578 1.578 0 0 1-1.343.753c-2.284-.048-7.135-7.65-11.286-14.979-1.917 10.959-3.758 16.77-5.481 17.285-.123.037-.268.081-.445.081zM130.222 498.459c-2.27.002-6.121-4.929-11.476-14.692-1.001 4.07-2.968 11.232-4.852 13.265-.433.467-1.028.663-1.628.53-2.93-.634-7.106-11.96-9.335-18.655a1.069 1.069 0 0 1 2.027-.675c2.478 7.446 5.97 15.801 7.567 17.11 1.591-2.158 3.752-10.092 4.782-14.79a1.07 1.07 0 0 1 .898-.828 1.06 1.06 0 0 1 1.087.557c3.873 7.296 8.997 15.294 10.705 16.026 1.127-1.368 1.77-10.109 1.666-17.723a1.068 1.068 0 0 1 1.053-1.082h.015a1.07 1.07 0 0 1 1.068 1.053c.094 6.883-.174 18.609-3.033 19.8a1.443 1.443 0 0 1-.544.104z" style="" fill="#251426" data-original="#251426"></path><path d="M344.233 257.401s20.961 7.949 9.616 26.393-21.722-9.09-9.616-7.177 11.616 26.155-11.871 28.824-30.959-21.943-18.682-21.647 14.412 20.58-13.345 15.776-17.165-29.358-7.782-28.824" style="" fill="#f5b29f" data-original="#f5b29f"></path><path d="M328.921 306.706c-6.348 0-12.013-2.002-16.154-5.663-3.148.505-7.257.503-12.614-.421-18.869-3.267-19.024-14.969-18.622-18.478.794-6.931 5.981-12.817 11.083-12.465a1.067 1.067 0 0 1 1.005 1.126c-.033.588-.556 1.061-1.126 1.005-3.862-.167-8.191 4.917-8.841 10.576-.446 3.895.303 13.265 16.865 16.13 4.28.744 7.672.857 10.347.605a20.16 20.16 0 0 1-1.464-1.92c-2.677-3.989-3.374-8.453-1.773-11.368 1.136-2.07 3.298-3.171 6.078-3.105 3.918.094 7.311 2.135 8.856 5.329 1.341 2.771 1.039 5.888-.805 8.336-.998 1.324-2.871 3.005-6.29 4.039 3.399 2.521 8.805 4.86 16.774 3.947 11.808-1.341 17.702-8.376 18.619-15.248-3.231 2.752-6.002 2.3-7.612 1.576-4.23-1.887-6.306-7.89-5.206-11.599.819-2.761 3.139-4.053 6.357-3.547 4.17.661 7.218 3.739 8.296 8.065.082-.127.164-.259.245-.39 3.101-5.042 3.958-9.704 2.547-13.855-2.526-7.435-11.543-10.949-11.634-10.982a1.07 1.07 0 0 1-.618-1.378c.211-.55.829-.826 1.376-.619.409.156 10.034 3.891 12.893 12.279 1.631 4.787.707 10.061-2.746 15.674a25.84 25.84 0 0 1-1.643 2.383c.008.279.009.561.003.847-.181 8.269-6.632 17.327-20.635 18.918a32.268 32.268 0 0 1-3.561.203zm-15.456-21.846c-1.878 0-3.246.688-3.966 2-1.201 2.189-.529 5.867 1.675 9.151.42.626 1.168 1.622 2.29 2.717 3.965-.857 5.809-2.59 6.587-3.622 1.353-1.795 1.573-4.083.588-6.122-1.194-2.469-3.871-4.047-6.986-4.122-.063-.002-.126-.002-.188-.002zm29.609-7.272c-1.564 0-2.566.713-2.986 2.127-.836 2.819.895 7.644 4.03 9.043 2.13.947 4.488-.017 6.815-2.729-.399-4.47-3.036-7.752-6.868-8.357a6.204 6.204 0 0 0-.991-.084z" style="" fill="#251426" data-original="#251426"></path><path d="M180.075 273.94s20.961 7.949 9.616 26.393-21.722-9.09-9.616-7.177c12.106 1.913 11.616 26.155-11.871 28.824s-30.959-21.943-18.682-21.647 14.412 20.58-13.345 15.776-17.165-29.358-7.782-28.824" style="" fill="#f5b29f" data-original="#f5b29f"></path><path d="M164.763 323.245c-6.348 0-12.013-2.002-16.154-5.663-3.151.503-7.259.5-12.614-.421-18.869-3.267-19.024-14.969-18.622-18.478.794-6.931 5.995-12.813 11.083-12.465a1.067 1.067 0 0 1 1.005 1.126c-.033.588-.538 1.074-1.126 1.005-3.843-.169-8.191 4.917-8.841 10.576-.446 3.895.303 13.265 16.865 16.13 4.281.744 7.671.855 10.347.605a20.16 20.16 0 0 1-1.464-1.92c-2.677-3.989-3.374-8.453-1.773-11.368 1.136-2.068 3.29-3.148 6.078-3.105 3.918.094 7.311 2.135 8.856 5.329 1.341 2.771 1.039 5.888-.805 8.336-.998 1.324-2.871 3.005-6.29 4.039 3.399 2.521 8.807 4.858 16.774 3.947 11.808-1.341 17.702-8.376 18.619-15.248-3.231 2.754-5.999 2.3-7.612 1.576-4.23-1.887-6.306-7.89-5.206-11.599.819-2.761 3.132-4.055 6.358-3.547 4.17.661 7.218 3.736 8.296 8.065l.244-.39c3.101-5.042 3.958-9.704 2.547-13.855-2.525-7.435-11.542-10.949-11.633-10.982a1.07 1.07 0 0 1-.618-1.378c.21-.55.827-.824 1.376-.619.409.156 10.033 3.891 12.892 12.279 1.632 4.787.707 10.061-2.746 15.674a25.84 25.84 0 0 1-1.643 2.383c.008.277.009.561.003.847-.18 8.269-6.632 17.327-20.635 18.918a32.268 32.268 0 0 1-3.561.203zm-15.456-21.846c-1.878 0-3.246.688-3.966 2-1.201 2.189-.529 5.867 1.675 9.151.42.626 1.168 1.622 2.29 2.717 3.965-.857 5.809-2.59 6.587-3.622 1.353-1.795 1.573-4.083.588-6.122-1.194-2.469-3.871-4.047-6.986-4.122-.063-.002-.126-.002-.188-.002zm29.61-7.272c-1.564 0-2.567.713-2.986 2.127-.836 2.821.893 7.644 4.029 9.043 2.134.949 4.49-.015 6.815-2.729-.398-4.47-3.035-7.752-6.867-8.357a6.204 6.204 0 0 0-.991-.084z" style="" fill="#251426" data-original="#251426"></path><path d="M392.814 204.726s2.498 18.861-14.826 16.876c-22.574-2.587-9.087-24.349-5.116-18.477 3.97 5.872-15.458 13.285-27.735-2.965s4.417-22.656 7.279-18.386-18.302 17.503-22.506 4.804c-6.659-20.112 11.214-25.088 11.214-25.088" style="" fill="#f5b29f" data-original="#f5b29f"></path><path d="M380.444 222.816c-.825 0-1.684-.05-2.577-.152-10.925-1.253-13.216-6.814-13.609-10.017a10.345 10.345 0 0 1-.073-1.572c-6.288.221-14.068-2.554-19.899-10.271-2.312-3.061-3.595-5.734-4.208-8.028-1.332.24-2.663.313-3.929.169-3.573-.407-6.079-2.494-7.251-6.032-2.212-6.683-2.045-12.49.496-17.258 3.72-6.975 11.131-9.106 11.444-9.193a1.062 1.062 0 0 1 1.314.74 1.069 1.069 0 0 1-.739 1.316c-.068.019-6.87 1.998-10.145 8.163-2.246 4.229-2.361 9.464-.343 15.561.904 2.729 2.743 4.272 5.466 4.583 1.043.119 2.157.054 3.29-.154-.239-2.235.178-4.026.782-5.382 1.643-3.689 5.309-5.592 8.212-5.84 2.085-.188 3.771.452 4.629 1.731.479.713.816 1.945-.288 3.759-1.602 2.631-6.083 5.892-10.864 7.335.547 2.023 1.711 4.427 3.838 7.242 5.762 7.629 13.042 9.744 18.456 9.393.77-3.607 3.098-6.741 5.41-7.606 1.533-.573 2.992-.119 3.901 1.224 1.392 2.058.731 4.427-1.724 6.182-1.48 1.059-3.45 1.818-5.707 2.166-.025.5-.01 1.005.052 1.512.555 4.518 4.612 7.34 11.734 8.155 4.495.523 7.956-.411 10.263-2.752 4.425-4.495 3.392-12.84 3.382-12.923a1.067 1.067 0 0 1 2.117-.28c.051.384 1.184 9.445-3.97 14.692-2.313 2.353-5.488 3.537-9.46 3.537zm-9.303-19.626a1.53 1.53 0 0 0-.536.113c-1.418.532-3.133 2.669-3.894 5.311 1.69-.348 3.096-.938 4.079-1.641.855-.611 2.147-1.845 1.198-3.249-.245-.363-.509-.534-.847-.534zm-21.798-21.635a5.42 5.42 0 0 0-.486.021c-2.278.196-5.155 1.689-6.444 4.583-.45 1.011-.763 2.331-.637 3.985 4.111-1.307 8.066-4.097 9.415-6.314.189-.311.599-1.072.338-1.462-.346-.517-1.161-.813-2.186-.813z" style="" fill="#251426" data-original="#251426"></path><path d="M287.819 318.488s14.042 12.838-.501 22.458c-18.951 12.535-22.617-12.803-15.8-10.86 6.816 1.943-3.294 20.115-23.147 15.564-19.852-4.55-11.187-20.191-6.249-18.761 4.938 1.43-2.76 25.173-14.146 18.152-18.033-11.12-7.545-26.424-7.545-26.424" style="" fill="#f5b29f" data-original="#f5b29f"></path><path d="M254.465 347.428c-2.008 0-4.123-.229-6.333-.736-3.739-.857-6.439-2.079-8.383-3.442-.866 1.043-1.837 1.954-2.9 2.656-2.997 1.987-6.258 2.002-9.433.044-5.992-3.695-9.597-8.249-10.716-13.534-1.638-7.734 2.668-14.133 2.851-14.4a1.062 1.062 0 0 1 1.482-.277c.487.332.611.995.28 1.482-.041.058-3.978 5.947-2.521 12.775 1 4.681 4.279 8.766 9.744 12.135 2.448 1.512 4.847 1.508 7.133-.004.875-.58 1.686-1.347 2.422-2.233-1.622-1.56-2.454-3.199-2.863-4.625-1.113-3.882.469-7.696 2.532-9.754 1.48-1.476 3.182-2.075 4.659-1.651.825.24 1.877.965 2.197 3.063.466 3.046-.868 8.426-3.603 12.604 1.72 1.197 4.157 2.292 7.596 3.08 9.325 2.139 16.231-.92 20.175-4.675-1.731-3.259-1.963-7.156-.75-9.306.806-1.426 2.215-2.014 3.775-1.57 2.388.68 3.406 2.919 2.655 5.842-.454 1.762-1.473 3.609-2.979 5.327.302.4.639.778 1.012 1.126 3.33 3.105 8.25 2.654 14.23-1.301 3.78-2.5 5.829-5.43 6.089-8.707.498-6.287-5.658-12.014-5.72-12.071a1.071 1.071 0 0 1-.066-1.51 1.072 1.072 0 0 1 1.508-.067c.286.261 6.982 6.474 6.407 13.805-.311 3.97-2.679 7.446-7.04 10.33-9.171 6.068-14.502 3.282-16.863 1.082a10.526 10.526 0 0 1-1.068-1.157c-3.563 3.221-8.947 5.667-15.509 5.669zm-12.998-19.561c-.648 0-1.455.417-2.198 1.159-1.62 1.614-2.863 4.608-1.989 7.652.305 1.065.915 2.277 2.076 3.463 2.308-3.645 3.543-8.328 3.151-10.892-.055-.359-.23-1.205-.681-1.334a1.276 1.276 0 0 0-.359-.048zm29.332 3.178c-.383 0-.66.202-.904.634-.744 1.32-.682 4.06.433 6.572 1.072-1.353 1.769-2.711 2.069-3.88.262-1.018.457-2.794-1.173-3.259a1.568 1.568 0 0 0-.425-.067z" style="" fill="#251426" data-original="#251426"></path></g></svg>