<svg xmlns="http://www.w3.org/2000/svg" version="1.1" xmlns:xlink="http://www.w3.org/1999/xlink" xmlns:svgjs="http://svgjs.com/svgjs" width="512" height="512" x="0" y="0" viewBox="0 0 512 512" style="enable-background:new 0 0 512 512" xml:space="preserve"><g><path d="M169.155 496.788c-14.911 0-27.042-12.131-27.042-27.042 0-4.023.909-7.952 2.588-11.51l-8.645-12.604a53.618 53.618 0 0 1-18.822 3.389c-15.412 0-30.371-6.787-40.524-18.387-8.538-9.755-13.322-22.499-13.322-35.458 0-18.106 9.182-34.768 23.778-44.633-6.72-19.61-10.363-40.042-10.855-60.938-6.034-1.561-12.015-3.873-17.702-6.86-9.816-5.151-19.111-12.296-28.407-21.841-2.28-2.309-4.682-4.927-7.496-8.176-4.882-5.706-8.493-10.527-11.411-15.237a13.034 13.034 0 0 1-1.255-2.649 75.603 75.603 0 0 1-2.271-4.202c-8.083-16.166-9.961-35.415-5.155-52.813 9.19-33.235 38.104-56.443 70.312-56.443 6.674 0 13.348 1.021 19.832 3.032 13.323 4.124 25.864 11.987 36.822 23.007 12.911-14.121 27.562-26.22 43.758-36.144a12.98 12.98 0 0 1 6.326-12.055l20.404-12.104 1.597-23.67a12.98 12.98 0 0 1 21.522-8.875l17.816 15.664 23.005-5.796a12.978 12.978 0 0 1 15.42 16.879h.201c12.805 0 25.553 1.194 38.047 3.56.23-.852.469-1.703.716-2.554.89-3.138 1.982-6.519 3.416-10.558 1.616-4.469 4.135-11.057 7.62-17.44a80.519 80.519 0 0 1 3.739-6.178c10.073-15.006 25.889-26.136 43.391-30.542a79.584 79.584 0 0 1 19.399-2.397c35.109 0 64.526 22.388 71.537 54.444 3.871 17.632 1.642 37.221-6.448 56.639a112.84 112.84 0 0 1-8.066 15.712 51.37 51.37 0 0 1 3.471 2.562c9.089 7.321 15.423 17.155 17.833 27.689 1.806 7.906 1.027 16.53-1.982 24.275 5.512 7.697 7.785 17.816 5.677 27.604a35.593 35.593 0 0 1-2.186 6.761 203.113 203.113 0 0 1 4.244 19.111 38.356 38.356 0 0 1 12.216 14.749 12.98 12.98 0 0 1-.53 12.023c-1.304 2.248-2.677 4.792-4.05 7.335-1.5 2.776-3.002 5.552-4.426 8.007-.086.15-.175.296-.268.442 4.656 9.913 5.058 21.949.885 32.47-1.627 4.098-3.904 7.969-6.799 11.554a12.98 12.98 0 0 1 2.926 6.488l3.457 23.47 21.294 10.46a12.983 12.983 0 0 1 .042 23.282l-21.254 10.538-3.366 23.483a12.984 12.984 0 0 1-12.847 11.138 12.988 12.988 0 0 1-9.281-3.902l-16.591-16.956-17.073 2.96a204.286 204.286 0 0 1-30.336 25.297c1.063 3.703 1.325 7.451.777 11.216-1.392 9.756-8.379 18.057-19.667 23.345-6.336 2.949-12.509 4.435-18.38 4.435-2.37 0-4.711-.245-6.957-.729-7.629-1.658-13.726-5.962-18.116-9.78a203.782 203.782 0 0 1-52.065 6.737c-2.294 0-4.606-.042-6.978-.127-3.845 2.905-7.758 4.91-11.852 6.087-2.958.843-6.064 1.268-9.26 1.268-5.168 0-10.637-1.105-16.255-3.281-7.978-3.125-14.036-7.819-17.704-13.599a201.262 201.262 0 0 1-21.387-8.225c-.237 14.705-12.275 26.593-27.037 26.593z" style="" fill="#ffffff" data-original="#ffffff"></path><circle cx="278.525" cy="284.696" r="190.394" style="" transform="rotate(-45.001 278.523 284.7)" fill="#cfc85e" data-original="#cfc85e"></circle><path d="M304.996 311.467a.254.254 0 0 1-.19-.084c-7.432-8.069-10.189-15.535-12.679-26.489-2.672-11.761-.165-23.525 6.705-31.472 6.9-7.98 17.285-11.468 27.329-14.842 2.185-.734 4.443-1.493 6.612-2.282 9.058-3.295 24.463-10.937 25.879-25.097.511-5.102-1.007-10.173-2.475-15.078-.643-2.151-1.309-4.375-1.8-6.583-1.668-7.505-.434-16.643 6.082-20.14a.26.26 0 0 1 .35.105.26.26 0 0 1-.106.351c-6.276 3.37-7.446 12.258-5.82 19.572.486 2.189 1.149 4.405 1.791 6.547 1.482 4.953 3.014 10.074 2.493 15.278-1.444 14.442-17.046 22.196-26.217 25.533-2.176.791-4.438 1.551-6.626 2.286-9.977 3.352-20.294 6.818-27.101 14.69-6.663 7.705-9.189 19.591-6.592 31.018 2.469 10.867 5.201 18.27 12.554 26.254a.258.258 0 0 1-.189.433z" style="" fill="#2b0000" data-original="#2b0000"></path><path d="M447.959 121.303c-8.718 20.822-24.657 39.338-45.718 47.455-3.351 1.302-6.832 2.266-10.383 2.947l-.022-.003a64.23 64.23 0 0 1-5.654.79c-5.985.581-12.04.29-17.875-.852-5.395-1.052-10.586-2.844-15.389-5.392-4.889-2.584-9.363-5.945-13.149-10.107-9.475-10.406-14.029-24.664-14.483-38.747-.348-10.62 1.496-21.201 4.47-31.449.936-3.304 2.027-6.584 3.182-9.831 1.926-5.329 4.071-10.602 6.779-15.563a68.113 68.113 0 0 1 3.126-5.168c8.311-12.38 21.324-21.547 35.781-25.187 32.191-8.093 67.773 8.8 75.086 42.233 3.568 16.261.663 33.482-5.751 48.874z" style="" fill="#e2de7b" data-original="#e2de7b"></path><path d="M367.174 184.688c-8.038-.231-15.982-3.147-22.245-8.164 2.678-3.423 5.333-6.849 7.989-10.275a546.263 546.263 0 0 0 3.439-4.395c3.741 1.933 8.709 1.627 12.446 3.582a117.812 117.812 0 0 1-.495 6.206c-.392 4.338-.913 8.635-1.134 13.046z" style="" fill="#e2de7b" data-original="#e2de7b"></path><path d="M424.418 80.388c-4.153 6.001-6.082 13.248-7.397 20.426-1.127 6.154-1.487 13.462 3.163 17.647 3.721 3.35 9.658 3.329 14.055.934s7.441-6.72 9.541-11.265c4.245-9.187 6.076-22.405 1.836-31.974-4.885-11.027-16.264-2.897-21.198 4.232zM426.603 135.032a6.726 6.726 0 1 1-13.297-2.035 6.726 6.726 0 0 1 13.297 2.035z" style="" fill="#ffefe0" data-original="#ffefe0"></path><g style="opacity:0.26;"><path d="M368.308 171.641c-.392 4.339-.913 8.636-1.134 13.047-8.038-.231-15.982-3.147-22.245-8.164 2.678-3.423 5.333-6.849 7.989-10.275-4.889-2.584-9.363-5.945-13.149-10.107-9.475-10.406-14.029-24.664-14.483-38.747-.348-10.62 1.496-21.201 4.47-31.449.936-3.304 2.027-6.584 3.182-9.831 1.926-5.329 4.071-10.602 6.779-15.563-5.786 20.93-4.639 43.828 3.671 63.921 8.342 20.188 23.799 37.292 42.794 48.021a62.12 62.12 0 0 1-17.874-.853z" style="" fill="#cfc85e" data-original="#cfc85e"></path></g><path d="M368.308 171.9h-.008c-10.463-.322-15.518-5.42-15.568-5.471a.259.259 0 0 1 .372-.36c.049.05 4.974 4.999 15.212 5.314a.258.258 0 0 1 .251.267.26.26 0 0 1-.259.25zM211.433 385.543c-6.004 0-11.693-1.273-18.57-3.345-11.547-3.479-20.543-11.465-24.063-21.361-3.535-9.938-1.445-20.692.576-31.091.439-2.263.894-4.603 1.278-6.88 1.605-9.504 2.562-26.674-9.057-34.894-4.186-2.961-9.344-4.144-14.332-5.287-2.189-.501-4.453-1.02-6.617-1.684-7.351-2.253-14.689-7.835-14.516-15.228.003-.143.146-.242.265-.253a.258.258 0 0 1 .253.265c-.167 7.122 6.986 12.525 14.15 14.721 2.146.658 4.4 1.175 6.58 1.674 5.038 1.155 10.247 2.349 14.516 5.369 11.85 8.383 10.894 25.779 9.27 35.403-.386 2.284-.841 4.627-1.281 6.893-2.008 10.331-4.084 21.014-.597 30.818 3.414 9.596 12.505 17.658 23.726 21.039 10.669 3.215 18.455 4.491 29.029 2.036a.259.259 0 0 1 .118.505c-3.855.895-7.343 1.3-10.728 1.3z" style="" fill="#2b0000" data-original="#2b0000"></path><path d="M127.478 165.933c13.808 17.857 22.047 40.857 18.714 63.181-.522 3.557-1.401 7.061-2.56 10.485l-.014.018a64.44 64.44 0 0 1-2.102 5.308 62.077 62.077 0 0 1-9.562 15.127c-3.577 4.173-7.697 7.804-12.284 10.724-4.66 2.976-9.791 5.21-15.279 6.449-13.726 3.105-28.374.031-40.848-6.524-9.409-4.938-17.701-11.763-25.148-19.407-2.411-2.444-4.726-5.012-6.981-7.619-3.685-4.305-7.213-8.773-10.19-13.576a67.688 67.688 0 0 1-2.953-5.27c-6.667-13.338-8.218-29.179-4.249-43.55 8.847-31.993 41.099-54.603 73.786-44.466 15.904 4.921 29.447 15.946 39.67 29.12z" style="" fill="#6186ce" data-original="#6186ce"></path><path d="M142.742 267.476c-4.168 6.877-10.624 12.347-18.078 15.319a2846.806 2846.806 0 0 0-4.995-12.019 561.285 561.285 0 0 0-2.125-5.16c3.527-2.3 5.712-6.772 9.257-9.058a118.272 118.272 0 0 1 5.153 3.493c3.58 2.482 7.06 5.056 10.788 7.425z" style="" fill="#6186ce" data-original="#6186ce"></path><path d="M80.275 166.218c3.17 6.573 8.521 11.828 14.115 16.513 4.796 4.017 10.975 7.936 16.91 5.957 4.75-1.584 7.661-6.757 7.748-11.764.086-5.006-2.173-9.788-5.09-13.857-5.895-8.226-16.488-16.341-26.904-17.376-12.001-1.192-10.545 12.717-6.779 20.527zM128.88 191.283a6.725 6.725 0 1 1-8.33 10.56 6.725 6.725 0 0 1 8.33-10.56z" style="" fill="#ffefe0" data-original="#ffefe0"></path><g style="opacity:0.2;"><path d="M131.953 260.163c3.581 2.482 7.061 5.056 10.788 7.425-4.168 6.876-10.624 12.347-18.078 15.319a2846.806 2846.806 0 0 0-4.995-12.019c-4.66 2.976-9.791 5.21-15.279 6.449-13.726 3.105-28.374.031-40.848-6.524-9.409-4.938-17.701-11.764-25.148-19.407-2.411-2.444-4.726-5.012-6.981-7.619-3.685-4.305-7.213-8.772-10.19-13.576 15.349 15.361 35.83 25.663 57.407 28.35 21.675 2.707 44.179-2.297 62.884-13.523a62.017 62.017 0 0 1-9.56 15.125z" style="" fill="#2b0000" data-original="#2b0000"></path></g><path d="M119.669 271.035a.26.26 0 0 1-.065-.509c.067-.018 6.802-1.858 12.128-10.608a.26.26 0 0 1 .443.27c-5.443 8.941-12.372 10.822-12.441 10.84a.369.369 0 0 1-.065.007z" style="" fill="#2b0000" data-original="#2b0000"></path><path d="M110.725 293.471c-8.005 6.611-10.673 18.433-7.652 28.365 3.022 9.932 11.037 17.877 20.427 22.306 9.794 4.619 21.213 5.699 31.7 2.997 2.62-.675 5.239-1.609 7.339-3.315 6.347-5.156 5.683-15.112 2.75-22.746-7.339-19.099-33.462-45.035-54.564-27.607z" style="" fill="#ffaca2" data-original="#ffaca2"></path><path d="M153.063 333.169a.544.544 0 0 1-.486-.297c-6.206-12.086-17.079-21.703-29.831-26.387a.547.547 0 0 1 .377-1.027c13.007 4.777 24.097 14.587 30.427 26.913a.546.546 0 0 1-.487.798z" style="" fill="#2b0000" data-original="#2b0000"></path><path d="M465.397 291.352c7.435 7.246 9.124 19.247 5.298 28.898-3.826 9.651-12.467 16.911-22.189 20.554-10.14 3.8-21.609 3.939-31.839.385-2.556-.888-5.089-2.033-7.042-3.906-5.903-5.659-4.424-15.528-.874-22.895 8.883-18.431 37.045-42.137 56.646-23.036z" style="" fill="#ffaca2" data-original="#ffaca2"></path><path d="M417.594 329.431a.546.546 0 0 1-.483-.802c6.29-11.921 17.132-21.484 29.746-26.235a.548.548 0 0 1 .385 1.024c-12.367 4.658-22.997 14.033-29.164 25.722a.549.549 0 0 1-.484.291z" style="" fill="#2b0000" data-original="#2b0000"></path><path d="M426.966 316.08c-.519 7.031-1.514 13.716-3.158 19.99-.303 1.103-.606 2.228-.952 3.31-4.551 14.952-14.307 27.487-27.558 35.8-14.697 9.22-32.383 13.337-49.459 15.191-2.791.303-5.711.584-8.719.822-37.405 2.834-75.589 7.009-108.018 3.981-17.631-1.54-36.165-5.468-51.22-15.182-14.269-9.207-24.393-23.56-29.129-39.79-1.774-5.863-3.094-12.31-3.916-19.384-.952-8.048-1.233-16.896-.8-26.653.043-1.341.108-2.726.195-4.11 0 0 .173-3.418 1.082-9.108.572-3.573 3.422-8.043 4.717-13.127 5.947-23.354 19.002-59.653 56.702-81.435 6.469-3.764 13.586-7.074 21.461-9.822a146.629 146.629 0 0 1 5.43-1.774l51.094-3.813 49.742 2.299c47.335 12.05 85.995 41.515 89.997 82.512 1.255 12.764 2.38 25.074 2.812 36.778.325 8.177.281 16.052-.303 23.515z" style="" fill="#ffaca2" data-original="#ffaca2"></path><g style="opacity:0.42;"><path d="M230.372 385.713c-.133 3.238-.548 6.418-1.265 9.466-38.497-3.547-68.931-17.182-80.354-54.968a52.121 52.121 0 0 1 31.457-8.936c28.886 1.188 51.35 25.553 50.162 54.438zM423.802 336.078c-7.519 28.555-28.304 48.608-77.953 54.286-.656-3.626-.904-7.377-.747-11.207 1.187-28.886 25.575-51.348 54.461-50.161a52.175 52.175 0 0 1 24.239 7.082z" style="" fill="#da5043" data-original="#da5043"></path></g><path d="M188.379 312.546c2.305 7.306 7.179 13.535 13.735 17.167 6.502 3.72 14.203 5.19 21.781 4.974 3.8-.115 7.592-.684 11.279-1.639 3.679-.984 7.254-2.368 10.602-4.169 6.663-3.616 12.41-9.077 15.622-16.023a1.306 1.306 0 0 1 2.413.987l-.004.01c-1.416 3.903-3.693 7.483-6.453 10.594-2.78 3.107-6.101 5.689-9.664 7.804-3.567 2.122-7.419 3.737-11.403 4.858a51.545 51.545 0 0 1-12.245 1.919c-8.255.304-16.787-1.404-24.013-5.825-3.582-2.224-6.751-5.152-9.202-8.581a31.334 31.334 0 0 1-4.969-11.412 1.305 1.305 0 0 1 1.003-1.55 1.317 1.317 0 0 1 1.518.886zM394.884 309.401a31.347 31.347 0 0 1-4.488 11.609c-2.306 3.529-5.351 6.586-8.836 8.957-7.035 4.718-15.489 6.781-23.749 6.821a51.584 51.584 0 0 1-12.314-1.406c-4.028-.954-7.943-2.407-11.596-4.378-3.648-1.965-7.074-4.405-9.982-7.394-2.888-2.993-5.313-6.475-6.89-10.315l-.002-.005a1.305 1.305 0 0 1 .711-1.703 1.31 1.31 0 0 1 1.656.611c3.499 6.806 9.469 12.022 16.277 15.357 3.42 1.659 7.049 2.893 10.766 3.723 3.724.801 7.536 1.21 11.338 1.167 7.58-.101 15.213-1.891 21.555-5.878 6.399-3.903 11.009-10.33 13.007-17.725a1.306 1.306 0 0 1 2.547.559z" style="" fill="#2b0000" data-original="#2b0000"></path><path d="M179.619 329.31a.501.501 0 0 1-.21-.954 83.213 83.213 0 0 0 12.185-6.958.5.5 0 0 1 .568.823 84.2 84.2 0 0 1-12.333 7.042.49.49 0 0 1-.21.047zM187.34 337.355a.5.5 0 0 1-.384-.82l7.527-9.056a.5.5 0 0 1 .77.639l-7.527 9.056a.501.501 0 0 1-.386.181zM199.548 343.196a.5.5 0 0 1-.481-.64 95.772 95.772 0 0 0 2.264-9.604.495.495 0 0 1 .582-.402.5.5 0 0 1 .402.581 97.104 97.104 0 0 1-2.287 9.705.5.5 0 0 1-.48.36zM404.353 323.787a.504.504 0 0 1-.21-.046 84.132 84.132 0 0 1-12.334-7.042.5.5 0 0 1 .568-.823 83.145 83.145 0 0 0 12.186 6.958.5.5 0 0 1-.21.953zM396.632 331.832a.501.501 0 0 1-.385-.18l-7.526-9.056a.501.501 0 0 1 .769-.64l7.526 9.056a.502.502 0 0 1-.384.82zM384.424 337.672a.5.5 0 0 1-.48-.36 97.123 97.123 0 0 1-2.287-9.706.5.5 0 0 1 .984-.179 95.727 95.727 0 0 0 2.264 9.605.5.5 0 0 1-.481.64zM292.575 346.773c-6.461 0-12.589-5.309-13.459-11.72a.548.548 0 0 1 1.084-.148c.8 5.893 6.434 10.773 12.371 10.773.081 0 .162-.001.242-.003 6.027-.135 11.577-5.321 12.12-11.324a.555.555 0 0 1 .594-.495.548.548 0 0 1 .496.594c-.592 6.53-6.629 12.171-13.185 12.319a7.689 7.689 0 0 1-.263.004zM190.158 272.896c.741-2.638 2.343-4.962 4.314-6.877 1.99-1.905 4.39-3.393 6.978-4.377 2.585-.991 5.375-1.469 8.134-1.328 2.747.14 5.494.861 7.771 2.419a.587.587 0 0 1-.237 1.063l-.012.002c-2.601.411-4.911.78-7.158 1.3a56.359 56.359 0 0 0-6.492 1.908 48.128 48.128 0 0 0-6.186 2.772c-2.048 1.074-4.033 2.331-6.222 3.759l-.009.006a.582.582 0 0 1-.806-.17.583.583 0 0 1-.075-.477zM379.565 272.654c-2.329-1.102-4.465-2.08-6.657-2.867-2.182-.786-4.371-1.426-6.615-1.876a38.861 38.861 0 0 0-6.863-.729c-2.34-.05-4.706.128-7.227.447l-.007.001a.568.568 0 0 1-.426-1.005c2.081-1.664 4.631-2.718 7.275-3.269 2.652-.548 5.42-.56 8.104-.104 2.684.455 5.298 1.404 7.598 2.857 2.289 1.451 4.312 3.372 5.579 5.759a.575.575 0 0 1-.75.79l-.011-.004z" style="" fill="#2b0000" data-original="#2b0000"></path><path d="M335.714 194.368c-1.969 6.187-6.209 11.899-12.202 14.408-5.993 2.531-14.495 2.618-18.497-2.488-2.466 5.841-5.971 11.336-10.86 15.36-4.889 4.045-11.271 6.468-17.567 5.819s-12.353-4.673-14.603-10.579c-1.406-3.656-1.341-7.702-1.06-11.596.303-4.5 1.125-8.502 1.947-12.937-5.582 3.44-11.423 6.945-17.934 7.615-6.533.649-13.932-2.488-15.988-8.718-1.73-5.279.779-11.033 4.002-15.576.216-.303.433-.606.671-.887 32.105-9.886 68.493-9.778 100.836-1.514 2.835 6.62 3.419 14.213 1.255 21.093zM200.427 172.278c-2.917-2.66-6.56-4.737-10.501-4.947-3.941-.211-8.59 1.518-10.183 5.129-5.498-7.295-11.599-15.02-20.365-17.587-8.022-2.35-16.828.231-23.806 4.834-6.925 4.568-12.595 11.245-15.201 19.122-2.607 7.876-1.303 17.176 3.13 24.189-7.782 3.71-12.163 12.945-11.155 21.507 1.008 8.562 6.828 16.149 14.339 20.379s16.511 5.339 25.065 4.262a79.81 79.81 0 0 1 2.437-.263c-5.142 12.906-7.661 24.483-8.872 32.044 7.312-.974 14.127-5.106 18.821-10.839 5.202-6.368 7.896-14.557 8.364-22.776 6.547-.849 12.766-2.325 16.922-5.421 8.792-6.549 14.881-16.281 18.352-26.679 4.868-14.583 4.013-32.595-7.347-42.954zM455.224 198.939c5.077-6.562 7.256-15.697 5.407-23.784-1.849-8.088-6.861-15.272-13.322-20.475-6.51-5.243-15.032-8.646-23.241-7.067-8.97 1.725-15.775 8.838-21.939 15.579-1.244-3.746-5.708-5.907-9.651-6.071-3.944-.164-7.767 1.559-10.922 3.93-12.29 9.236-14.847 27.086-11.382 42.065 2.471 10.681 7.611 20.945 15.743 28.297 3.845 3.476 9.893 5.542 16.332 7.007-.311 8.225 1.595 16.629 6.169 23.458 4.13 6.152 10.523 10.911 17.71 12.573-.544-11.741-1.387-22.41-2.988-32.163 8.297 1.784 17.195 1.49 24.947-1.954 7.878-3.5 14.39-10.501 16.205-18.929 1.815-8.426-1.672-18.035-9.068-22.466z" style="" fill="#da5043" data-original="#da5043"></path><path d="M302.484 413.277c-.16.395-.321.768-.481 1.163-.183.374-.343.747-.482 1.141-.201.461-.403.922-.603 1.405-.341.812-.704 1.625-1.046 2.437-7.894 18.658-16.315 37.744-29.988 52.458-3.867 4.175-8.327 8.109-13.774 9.673-5.661 1.615-11.781.473-17.24-1.642-5.92-2.316-11.877-6.407-13.185-12.619-1.638-7.695 3.967-14.979 9.498-20.572-5.756.708-11.992 1.303-16.939-1.695-4.637-2.791-7.043-8.167-8.599-13.354-1.584-5.403-2.457-11.543.326-16.44 1.699-2.978 4.572-5.129 7.616-6.701 6.704-3.489 14.42-4.499 21.961-4.899 21.346-1.154 42.927 2.142 62.936 9.645z" style="" fill="#e2de7b" data-original="#e2de7b"></path><path d="M234.338 407.397c-5.984.685-12.036 1.737-17.413 4.453-1.001.506-2.094 1.246-2.17 2.366-.061.907.622 1.733 1.443 2.124.821.391 1.758.439 2.667.477 16.339.678 32.726.186 48.995-1.471 9.879-1.006 20.137-3.074 30.09-2.651-16.099-4.434-32.611-6.723-49.327-6.295-4.773.122-9.541.454-14.285.997z" style="" fill="#da5043" data-original="#da5043"></path><path d="M302.002 414.441c-.183.374-.343.747-.482 1.141-.201.461-.403.922-.603 1.405-.343.098-.686.196-1.008.293-.472.145-.922.268-1.372.413-2.058.609-4.117 1.196-6.175 1.804 0 0 .001.022-.022.001a8248.105 8248.105 0 0 1-48.866 14.137c-.086.024-.172.049-.258.052a1.088 1.088 0 0 1-.352-2.131 8356.396 8356.396 0 0 0 56.092-16.236c.45-.145.9-.268 1.372-.391l.022-.001a23.435 23.435 0 0 1 1.652-.487z" style="" fill="#cfc85e" data-original="#cfc85e"></path><path d="M252.463 444.853a1.082 1.082 0 0 1-.542-2.037 648.415 648.415 0 0 0 47.496-27.788 1.078 1.078 0 0 1 1.495.323 1.08 1.08 0 0 1-.323 1.495 651.882 651.882 0 0 1-47.654 27.882 1.126 1.126 0 0 1-.472.125z" style="" fill="#cfc85e" data-original="#cfc85e"></path><path d="M301.52 415.582c-.201.461-.403.922-.603 1.405-.341.812-.704 1.625-1.046 2.437a684.723 684.723 0 0 1-34.045 35.036.998.998 0 0 1-.704.305c-.303.01-.609-.088-.811-.32a1.09 1.09 0 0 1 .014-1.537 667.503 667.503 0 0 0 33.189-34.099l.021-.022c.356-.358.669-.715 1.003-1.093l1.692-1.874c.188-.201.444-.339.724-.37.194-.007.39.029.566.132z" style="" fill="#cfc85e" data-original="#cfc85e"></path><path d="M300.688 413.336c.186.384.371.746.557 1.129.207.361.392.723.556 1.107.231.447.462.894.694 1.363.394.788.809 1.575 1.203 2.363 9.101 18.1 18.756 36.593 33.365 50.378 4.133 3.912 8.841 7.546 14.379 8.749 5.755 1.24 11.787-.3 17.096-2.769 5.756-2.7 11.431-7.172 12.329-13.457 1.13-7.786-4.941-14.687-10.827-19.905 5.79.329 12.052.513 16.792-2.802 4.444-3.09 6.492-8.612 7.704-13.89 1.227-5.495 1.695-11.679-1.404-16.383-1.891-2.86-4.899-4.818-8.039-6.186-6.918-3.042-14.684-3.544-22.235-3.447-21.379.246-42.697 4.951-62.17 13.75z" style="" fill="#e2de7b" data-original="#e2de7b"></path><path d="M368.301 402.999c6.016.291 12.124.944 17.667 3.301 1.032.439 2.171 1.106 2.32 2.218.121.901-.507 1.77-1.301 2.214-.794.444-1.725.554-2.63.651a343.07 343.07 0 0 1-48.986 1.746c-9.924-.356-20.296-1.746-30.199-.672 15.773-5.481 32.1-8.847 48.808-9.517a162.08 162.08 0 0 1 14.321.059z" style="" fill="#da5043" data-original="#da5043"></path><path d="M301.244 414.465c.207.361.392.723.556 1.107.231.447.462.894.694 1.363.349.075.698.15 1.025.226.48.114.937.208 1.396.322 2.094.472 4.186.923 6.28 1.395 0 0 .001.022.022-.001a8150.988 8150.988 0 0 0 49.688 10.901c.087.019.174.038.261.035a1.085 1.085 0 0 0 1.032-.857 1.093 1.093 0 0 0-.822-1.293 8278.96 8278.96 0 0 1-57.036-12.522 26.18 26.18 0 0 0-1.395-.301l-.022.001a25.288 25.288 0 0 0-1.679-.376z" style="" fill="#cfc85e" data-original="#cfc85e"></path><path d="M352.673 441.562a1.082 1.082 0 0 0 .407-2.068 649.223 649.223 0 0 1-49.217-24.612 1.076 1.076 0 0 0-1.47.42 1.079 1.079 0 0 0 .42 1.47 651.496 651.496 0 0 0 49.38 24.696c.157.069.319.1.48.094z" style="" fill="#cfc85e" data-original="#cfc85e"></path><path d="M301.8 415.573c.231.447.462.894.694 1.363.394.788.809 1.575 1.203 2.363a684.71 684.71 0 0 0 36.27 32.728 1 1 0 0 0 .723.258c.303-.01.602-.128.789-.372a1.09 1.09 0 0 0-.115-1.533 667.498 667.498 0 0 1-35.354-31.849l-.022-.021c-.379-.334-.715-.669-1.073-1.025l-1.811-1.759a1.18 1.18 0 0 0-.747-.322 1.036 1.036 0 0 0-.557.169z" style="" fill="#cfc85e" data-original="#cfc85e"></path><path d="M161.149 460.046c-.344 0-.682-.165-.892-.469l-22.923-33.418a1.08 1.08 0 1 1 1.783-1.225l22.923 33.418a1.082 1.082 0 0 1-.891 1.694z" style="" fill="#2b0000" data-original="#2b0000"></path><path d="M168.052 455.684c-2.401 0-4.695.606-6.685 1.688a12.31 12.31 0 0 0-1.796 1.19 13.902 13.902 0 0 0-5.582 11.185c0 7.745 6.317 14.062 14.062 14.062 7.745 0 14.062-6.317 14.062-14.062.001-7.768-6.316-14.063-14.061-14.063zm0 25.961c-6.555 0-11.899-5.344-11.899-11.899 0-4.024 1.99-7.572 5.041-9.692.281-.238.584-.411.887-.584 0 0 .022 0 .022-.022a11.76 11.76 0 0 1 5.949-1.601c6.555 0 11.899 5.322 11.899 11.899-.001 6.555-5.344 11.899-11.899 11.899z" style="" fill="#2b0000" data-original="#2b0000"></path><path d="M156.997 395.174c0 13.218-6.274 24.987-16.031 32.451-.562.454-1.147.865-1.752 1.255a40.574 40.574 0 0 1-23.083 7.161 40.683 40.683 0 0 1-18.259-4.305c-.408-.199 1.192-.407.797-.621-.505-.274-3.003-.558-3.501-.85a40.78 40.78 0 0 1-8.307-6.577h-.022c-.284-.284 1.438-.577 1.165-.879-.29-.32-2.574-.648-2.852-.982a38.863 38.863 0 0 1-4.889-7.074c-.164-.29 1.675-.585 1.52-.884-.193-.37-2.379-.746-2.558-1.128a40.85 40.85 0 0 1-3.959-17.567c0-22.586 18.302-40.888 40.866-40.888 10.687 0 20.401 4.089 27.691 10.795.229.22-.542 1.44-.314 1.661.31.302 1.616-.394 1.916-.082a39.182 39.182 0 0 1 6.014 7.94c.217.358-.575 1.716-.375 2.075.26.467 1.506-.064 1.738.413a39.008 39.008 0 0 1 2.055 4.997c.168.492-.676.99-.529 1.49.138.468 1.268.938 1.394 1.409a40.797 40.797 0 0 1 1.275 10.19z" style="" fill="#99b2d8" data-original="#99b2d8"></path><path d="M145.423 366.66a89.876 89.876 0 0 1-27.345 32.126 89.887 89.887 0 0 1-37.816 15.966 29.058 29.058 0 0 1-1.038-2.012c13.543-2.228 26.458-7.594 37.6-15.706a87.967 87.967 0 0 0 26.999-31.953c.54.519 1.08 1.039 1.6 1.579zM155.72 384.984c-12.115 21.85-32.905 38.963-56.746 46.426-.346.108-.714.216-1.103.324a40.692 40.692 0 0 1-2.704-1.471c1.103-.281 2.163-.606 3.159-.909 23.971-7.507 44.826-25.03 56.529-47.27.324.953.606 1.927.865 2.9z" style="" fill="#ffffff" data-original="#ffffff"></path><path d="M152.8 377.088c-1.298 2.509-3.396 4.586-6.014 5.69-.346.151-.714.281-1.082.411-.909.325-1.774.649-2.38 1.212-.736.692-1.103 1.796-1.514 2.942-.108.325-.216.649-.324.952-1.644 4.435-5.236 8.091-9.649 9.778-.779.303-1.601.562-2.423.801-1.666.498-3.223.952-4.457 1.904-1.32 1.017-2.185 2.531-3.115 4.11-1.038 1.752-2.098 3.57-3.829 4.846-1.947 1.45-4.283 1.861-6.533 2.272-1.839.324-3.548.649-5.019 1.471-1.644.93-2.899 2.466-4.219 4.132-1.623 1.99-3.31 4.067-5.841 5.084-1.904.757-3.894.736-5.819.736-.714 0-1.428 0-2.12.043a8.455 8.455 0 0 0-1.601.216h-.022a27.864 27.864 0 0 1-1.687-1.861 11.075 11.075 0 0 1 3.18-.627c.757-.022 1.493-.022 2.271-.022 1.774 0 3.461.022 4.954-.584 1.99-.801 3.418-2.553 4.911-4.413 1.406-1.731 2.856-3.526 4.889-4.673 1.796-1.017 3.786-1.385 5.733-1.731 2.077-.368 4.046-.714 5.582-1.861 1.363-.995 2.25-2.531 3.202-4.154 1.017-1.731 2.034-3.505 3.699-4.781 1.579-1.19 3.418-1.752 5.192-2.272.757-.238 1.536-.454 2.272-.736 3.808-1.471 6.923-4.63 8.329-8.459.108-.281.216-.584.325-.887.433-1.32.93-2.791 2.098-3.872.93-.887 2.055-1.298 3.137-1.687.324-.13.671-.238.995-.389 2.596-1.103 4.608-3.418 5.517-6.079.496.822.951 1.644 1.362 2.488z" style="" fill="#ffffff" data-original="#ffffff"></path><path d="m236.453 84.493 29.622-7.463-12.094 28.052 16.251 25.866-30.416-2.835-19.578 23.45-6.703-29.804-28.352-11.373 26.273-15.585 2.056-30.479zM470.497 375.19l27.419 13.468-27.368 13.571-4.336 30.238-21.364-21.835-30.098 5.221 14.164-27.066-14.266-27.012 30.118 5.108 21.282-21.915z" style="" fill="#99b2d8" data-original="#99b2d8"></path><path d="M301.079 128.413c-6.566-1.258-13.613.217-19.124 4.002-5.511 3.785-9.417 9.833-10.6 16.413 3.618 2.789 7.466 5.732 11.179 8.393 2.329-4.685 6.255-8.366 10.826-10.911 4.571-2.545 10.126-3.434 15.165-2.025-2.205-4.969-5.241-10.902-7.446-15.872zM479.395 270.263c-2.837-6.054-8.167-10.893-14.467-13.132-6.3-2.239-13.488-1.851-19.51 1.054-.133 4.566-.257 9.409-.232 13.978 5.16-.865 10.445.152 15.189 2.358s8.725 6.181 10.542 11.087c2.729-4.702 5.749-10.643 8.478-15.345z" style="" fill="#ffefe0" data-original="#ffefe0"></path><path d="M174.601 400.353c-3.021 5.964-3.549 13.144-1.432 19.486 2.117 6.342 6.852 11.765 12.85 14.718 3.679-2.708 7.57-5.594 11.153-8.429-3.86-3.531-6.315-8.321-7.5-13.417-1.184-5.096-.506-10.681 2.239-15.134-5.385.748-11.925 2.028-17.31 2.776z" style="" fill="#e2de7b" data-original="#e2de7b"></path></g></svg>